<?xml version="1.0" standalone="no"?>
<!DOCTYPE svg PUBLIC "-//W3C//DTD SVG 20010904//EN"
 "http://www.w3.org/TR/2001/REC-SVG-20010904/DTD/svg10.dtd">
<svg version="1.0" xmlns="http://www.w3.org/2000/svg"
 width="543.000000pt" height="543.000000pt" viewBox="0 0 543.000000 543.000000"
 preserveAspectRatio="xMidYMid meet">
<metadata>
Created by potrace 1.14, written by Peter Selinger 2001-2017
</metadata>
<g transform="translate(0.000000,543.000000) scale(0.100000,-0.100000)"
fill="#000000" stroke="none">
<path d="M3400 5131 c-8 -5 -35 -12 -60 -16 -97 -16 -320 -152 -409 -248 l-24
-26 -33 34 c-19 19 -40 35 -49 35 -8 0 -15 5 -15 10 0 12 -202 111 -265 130
-22 7 -47 15 -55 18 -8 3 -22 6 -30 7 -8 1 -31 6 -50 12 -46 15 -149 22 -156
11 -3 -5 -20 -6 -38 -2 -18 3 -53 1 -77 -5 -56 -15 -139 -52 -139 -63 0 -4 -5
-8 -11 -8 -12 0 -86 -58 -121 -94 -40 -42 -116 -163 -157 -251 -39 -83 -77
-208 -131 -438 -18 -80 -34 -122 -75 -198 -30 -55 -103 -109 -264 -194 -111
-60 -177 -114 -233 -192 -67 -93 -113 -202 -135 -313 -2 -14 -4 -79 -4 -145 0
-103 14 -214 44 -350 23 -102 25 -206 6 -262 -14 -42 -78 -155 -95 -165 -6 -4
-17 -21 -24 -38 -7 -16 -16 -30 -21 -30 -5 0 -9 -4 -9 -9 0 -5 -16 -33 -35
-62 -19 -29 -48 -91 -65 -137 -28 -77 -30 -94 -26 -176 2 -52 11 -108 20 -130
18 -44 21 -76 5 -76 -5 0 -8 -3 -6 -8 3 -4 -10 -22 -28 -41 -72 -73 -114 -194
-155 -444 -12 -71 -32 -165 -46 -210 -22 -75 -84 -194 -125 -242 -9 -11 -32
-53 -51 -94 -31 -67 -33 -77 -23 -109 7 -19 18 -37 24 -41 22 -14 196 -10 252
5 30 8 67 18 84 20 16 3 41 14 56 25 14 10 29 16 33 12 3 -3 6 0 6 7 0 7 2 11
5 9 2 -3 -14 -50 -36 -104 -42 -106 -76 -270 -85 -410 -3 -44 -7 -92 -9 -107
l-5 -28 85 0 c66 0 85 3 85 14 0 7 10 16 22 19 l22 6 -22 24 c-21 22 -22 31
-17 97 8 94 6 90 33 120 32 36 27 71 -6 38 -9 -9 -9 -5 -2 18 6 16 18 58 28
93 17 63 42 94 42 53 0 -11 -5 -22 -11 -24 -8 -3 -6 -9 4 -19 18 -18 57 -81
57 -91 0 -4 -6 -5 -14 -2 -31 12 -25 -17 6 -32 43 -20 108 -126 182 -292 9
-21 14 -23 95 -20 l86 3 7 60 c4 33 11 67 15 75 4 8 7 20 8 25 0 6 13 36 29
69 27 57 28 58 43 36 23 -33 38 -10 18 29 -16 32 -16 32 15 61 30 28 31 28 60
12 39 -22 51 -7 17 21 l-28 22 65 68 c36 37 68 67 72 67 14 0 73 74 67 83 -3
6 -2 7 4 4 9 -5 24 10 88 90 36 45 75 135 88 204 11 54 27 81 27 44 0 -9 15
-23 34 -31 37 -18 66 -71 66 -122 0 -36 15 -43 23 -11 5 17 9 19 26 9 12 -6
21 -17 21 -25 0 -8 3 -15 8 -15 4 0 16 -13 27 -29 17 -27 47 -45 68 -42 4 1 7
-6 7 -14 0 -7 6 -18 13 -22 8 -4 17 -16 20 -27 6 -14 10 -16 21 -7 11 9 17 8
28 -7 7 -10 30 -24 51 -31 25 -9 39 -20 43 -36 3 -14 11 -22 19 -19 7 3 31 -5
54 -17 23 -12 55 -22 70 -24 16 -1 41 -14 55 -28 26 -26 56 -36 56 -18 0 5 16
5 37 0 21 -4 39 -6 41 -4 3 2 10 -1 16 -8 7 -7 37 -12 69 -11 33 0 53 -4 50
-9 -4 -6 5 -8 21 -5 14 3 34 -1 43 -8 24 -18 33 -17 33 1 0 11 7 14 23 10 12
-3 35 -7 51 -10 17 -2 34 -11 39 -20 11 -20 27 -10 20 13 -4 15 3 18 44 19 66
2 94 7 122 22 16 9 30 10 45 3 16 -7 37 -4 86 15 93 35 150 63 150 73 0 5 8
11 18 14 9 3 31 19 49 36 37 35 53 37 78 10 10 -11 22 -20 27 -20 15 0 8 19
-14 40 l-22 21 28 24 c30 26 60 32 71 15 8 -13 45 -13 45 0 0 5 -10 15 -22 21
-13 6 -25 13 -27 15 -2 2 15 24 38 50 22 26 41 52 41 59 0 6 9 20 20 30 11 10
20 23 20 30 0 7 11 25 25 41 14 16 25 35 25 42 0 6 5 12 10 12 6 0 10 8 10 19
0 10 7 24 15 31 8 7 15 19 15 26 0 8 5 14 10 14 6 0 10 8 10 18 0 9 11 39 25
66 14 27 25 56 25 63 0 8 7 21 16 30 14 14 16 14 21 -6 3 -11 9 -21 12 -21 17
0 19 14 5 52 -17 49 -11 60 15 30 10 -12 25 -22 34 -22 9 0 19 -5 22 -10 4 -6
11 -8 16 -5 5 4 9 1 9 -5 0 -6 13 -16 29 -21 16 -6 32 -17 35 -25 3 -9 11 -12
17 -8 8 4 9 3 5 -4 -4 -7 -1 -12 9 -12 8 0 18 -7 22 -16 3 -8 15 -19 27 -24
12 -4 30 -24 41 -43 19 -35 19 -37 0 -56 -20 -23 -6 -28 24 -9 17 10 23 8 40
-13 12 -13 24 -34 27 -46 3 -13 10 -23 15 -23 5 0 9 -6 9 -14 0 -8 9 -33 20
-57 26 -59 26 -130 0 -154 -27 -25 -27 -50 0 -35 18 10 20 8 20 -30 0 -27 -5
-43 -15 -46 -8 -4 -15 -13 -15 -21 0 -9 6 -13 14 -10 11 4 16 -10 21 -66 4
-40 14 -89 22 -110 14 -34 19 -37 49 -35 46 3 100 57 96 97 -2 16 3 35 11 42
7 8 17 27 21 42 8 34 22 28 31 -13 4 -17 13 -30 21 -30 17 0 13 22 -11 72 -7
15 -10 30 -5 33 4 3 11 17 15 32 3 16 17 42 29 58 12 17 28 44 35 61 6 17 18
31 26 31 8 0 12 -4 9 -9 -3 -4 7 -32 23 -61 20 -37 27 -60 22 -77 -4 -17 1
-37 14 -59 23 -37 30 -71 53 -236 14 -104 23 -226 24 -322 l0 -43 68 0 68 0
13 45 c7 25 13 62 13 83 -2 76 -23 246 -43 348 -5 28 -12 64 -15 80 -10 66
-17 90 -26 101 -6 7 -8 13 -5 13 6 0 -24 94 -41 126 -5 10 -20 43 -32 71 -13
29 -34 62 -46 74 l-24 22 21 34 c31 49 88 169 93 195 3 13 10 39 16 58 31 94
38 142 40 280 2 142 -24 248 -82 338 -15 24 -28 45 -28 48 0 11 -118 120 -164
152 -39 27 -54 47 -82 107 -19 40 -34 83 -34 94 0 14 -6 21 -19 21 -41 0 -34
136 20 410 22 109 19 207 -8 289 -54 167 -133 288 -243 371 -103 78 -169 195
-172 306 -2 54 5 141 28 344 8 74 14 180 13 235 -1 87 -5 125 -22 220 -15 83
-77 245 -94 245 -7 0 -13 11 -13 25 0 14 -4 25 -9 25 -5 0 -13 10 -17 23 -4
12 -10 24 -13 27 -4 3 -17 20 -30 38 -12 17 -29 32 -37 32 -8 0 -14 6 -14 13
0 43 -285 223 -345 219 -10 0 -25 3 -31 9 -16 13 -214 21 -234 10z m94 -131
c16 -6 27 -6 31 0 4 7 13 6 25 0 10 -5 27 -10 38 -10 31 0 120 -30 136 -45 8
-8 21 -15 28 -15 20 0 98 -62 98 -77 0 -7 9 -13 20 -13 11 0 19 -3 18 -7 -3
-18 23 -63 36 -63 8 0 22 -15 31 -34 9 -18 25 -43 35 -54 11 -11 21 -32 24
-45 2 -14 10 -36 17 -49 7 -12 14 -25 15 -28 0 -3 4 -13 7 -22 23 -61 22 -55
35 -168 15 -123 3 -328 -34 -611 -6 -51 12 -227 25 -244 5 -5 12 -21 16 -33
12 -42 69 -126 105 -156 58 -49 190 -186 190 -197 0 -5 9 -19 19 -30 11 -12
22 -33 26 -47 3 -14 15 -36 25 -49 14 -19 38 -144 33 -173 -1 -3 -7 -41 -13
-85 -7 -44 -14 -89 -16 -100 -45 -250 -41 -358 19 -485 23 -49 76 -120 109
-147 18 -15 45 -40 59 -55 14 -15 29 -28 32 -28 9 0 104 -98 122 -127 43 -65
59 -136 60 -258 0 -140 -6 -188 -35 -270 -11 -33 -22 -64 -23 -70 -2 -5 -11
-24 -20 -42 -9 -18 -17 -37 -17 -42 0 -6 -33 -69 -74 -140 -41 -71 -77 -139
-81 -150 -10 -31 -22 -25 -23 12 -2 49 -47 167 -86 228 -59 90 -113 155 -127
152 -4 -2 -17 9 -27 22 -11 14 -27 25 -36 25 -9 0 -16 7 -16 15 0 8 -7 15 -15
15 -8 0 -25 11 -39 25 -14 14 -33 25 -42 25 -9 0 -22 8 -29 17 -7 9 -18 17
-26 19 -32 5 -86 34 -108 58 -14 14 -33 26 -43 26 -10 0 -18 5 -18 10 0 6 -13
16 -29 23 -37 16 -104 77 -135 124 -30 45 -78 168 -69 177 4 3 1 6 -5 6 -5 0
-15 21 -20 47 -9 40 -7 52 11 87 11 23 25 50 30 60 13 28 47 126 42 126 -2 0
3 23 11 52 7 29 11 63 8 75 -4 13 -2 23 4 23 5 0 13 35 16 78 11 125 15 138
44 152 15 8 32 14 37 15 40 5 85 19 85 26 0 4 20 17 43 27 24 11 53 32 64 48
31 44 65 115 69 143 9 67 10 112 3 117 -4 2 -6 10 -4 17 15 41 -72 167 -135
193 -19 8 -43 24 -53 35 -48 51 -117 139 -117 149 0 5 -4 10 -8 10 -4 0 -25
28 -45 63 -21 34 -42 69 -47 77 -46 77 -98 231 -136 400 l-14 65 49 100 c57
116 105 258 103 298 -3 33 -41 104 -59 111 -7 3 -26 0 -42 -5 -25 -9 -32 -19
-45 -67 -34 -124 -49 -161 -135 -330 -45 -89 -182 -272 -202 -272 -5 0 -32
-18 -60 -40 -56 -44 -76 -51 -57 -20 7 11 16 20 20 20 5 0 8 6 8 14 0 7 11 30
25 50 13 20 22 36 19 36 -3 0 1 7 9 15 9 8 23 36 33 62 9 27 25 57 34 68 9 11
27 51 39 88 l24 68 -47 45 c-46 44 -49 45 -82 34 -40 -14 -129 -85 -224 -180
-69 -69 -155 -137 -205 -162 -16 -8 -55 -28 -85 -44 -109 -56 -150 -61 -95
-10 14 13 25 31 25 40 0 9 4 16 9 16 5 0 15 16 22 35 7 19 19 35 27 35 7 0 10
5 7 10 -3 6 -2 10 4 10 10 0 89 148 102 193 9 31 -6 57 -34 57 -8 0 -20 7 -27
15 -17 20 -68 9 -105 -24 -68 -61 -140 -102 -270 -153 -27 -11 -63 -26 -80
-33 -16 -8 -66 -26 -110 -40 -98 -32 -91 -29 -250 -106 -121 -59 -196 -103
-235 -139 -10 -8 -26 -22 -37 -31 -12 -9 -40 -43 -64 -75 -24 -33 -50 -65 -57
-72 -26 -28 -43 -74 -37 -100 4 -22 16 -31 56 -45 49 -18 52 -18 71 0 12 10
29 32 39 48 l19 30 1 -30 c5 -254 6 -238 -21 -241 -43 -6 -124 -26 -141 -35
-36 -19 -68 -95 -89 -214 -17 -98 -19 -127 -10 -171 6 -29 18 -58 26 -64 7 -7
14 -17 14 -22 0 -5 12 -27 28 -49 26 -38 49 -49 127 -63 17 -3 48 -10 70 -15
25 -6 41 -7 43 -1 9 24 22 5 33 -47 7 -32 12 -61 11 -65 -1 -4 7 -26 17 -50
10 -24 21 -63 24 -88 4 -25 20 -85 37 -135 17 -49 34 -98 37 -108 5 -15 -4
-17 -92 -17 -82 0 -101 -3 -126 -21 -28 -20 -29 -21 -11 -44 21 -29 67 -40
153 -36 l66 3 7 -54 c22 -189 13 -373 -24 -452 -24 -52 -50 -87 -129 -172 -78
-84 -107 -143 -122 -246 -21 -147 -68 -215 -310 -459 -126 -127 -146 -152
-182 -226 l-40 -83 -48 77 c-45 70 -83 154 -95 208 -23 99 -30 278 -14 351 25
114 31 140 34 159 3 11 9 40 15 65 34 153 -3 347 -108 557 -23 45 -41 86 -41
93 0 6 -11 32 -24 58 -34 68 -49 184 -34 257 7 36 47 125 62 140 6 6 20 29 31
51 11 21 25 42 31 46 23 15 102 146 129 213 26 62 28 81 27 171 -1 55 -9 138
-18 185 -9 46 -17 93 -18 105 -1 11 -5 25 -9 31 -15 24 -20 269 -6 324 7 30
12 58 11 62 -4 16 66 152 90 174 83 80 148 133 178 147 49 23 77 40 100 61 11
10 20 15 20 11 0 -10 42 15 96 59 47 37 98 96 135 155 24 38 69 176 84 255 18
98 52 227 76 288 21 55 71 159 79 167 3 3 12 18 21 33 23 42 126 143 160 157
16 7 29 16 29 21 0 5 11 9 24 9 14 0 28 5 31 10 3 6 21 10 39 10 18 0 36 3 39
6 8 8 109 10 122 2 6 -3 33 -9 60 -13 28 -4 55 -11 62 -17 7 -5 17 -7 23 -3 5
3 10 1 10 -4 0 -6 4 -11 10 -11 5 0 32 -14 60 -30 28 -17 55 -28 59 -26 9 6
51 -31 51 -44 0 -6 6 -10 14 -10 8 0 16 -7 20 -15 3 -8 15 -15 26 -15 12 0 18
-5 15 -10 -16 -26 58 -61 141 -66 l61 -4 50 53 c28 28 62 61 75 73 35 29 138
97 168 110 14 6 48 21 75 34 28 13 64 23 80 24 18 1 29 6 28 14 -4 15 -1 15
31 2z m-944 -1108 c0 -5 -11 -22 -26 -38 -14 -16 -34 -47 -44 -70 -10 -22 -26
-47 -35 -54 -9 -7 -22 -27 -30 -44 -8 -17 -23 -41 -34 -54 -18 -21 -26 -22
-78 -17 -95 10 -143 11 -146 2 -1 -4 -16 -9 -33 -9 -18 -1 -36 -8 -42 -19 -17
-26 76 -119 121 -120 18 0 56 -3 85 -5 38 -4 52 -1 52 8 0 11 2 11 9 0 8 -14
181 -23 181 -9 0 4 7 7 15 7 17 0 20 16 5 25 -5 3 -10 12 -10 18 0 7 4 6 10
-3 9 -13 10 -13 10 0 0 23 14 40 36 44 20 5 66 23 149 61 28 12 60 25 73 29
12 4 22 12 22 17 0 5 7 9 15 9 9 0 28 8 43 17 92 56 139 88 155 105 24 25 41
24 27 -2 -6 -11 -15 -20 -20 -20 -6 0 -10 -4 -10 -10 0 -14 -100 -152 -131
-180 -3 -3 -18 -22 -33 -42 -31 -42 -30 -88 2 -88 9 0 29 -11 44 -24 27 -23
29 -23 75 -8 68 20 176 63 189 73 13 11 40 -20 36 -42 -2 -10 8 -20 25 -27 30
-12 239 -14 301 -2 44 8 62 3 62 -15 0 -8 -7 -11 -20 -8 -13 3 -20 0 -20 -8
-1 -10 -4 -8 -11 4 -5 9 -15 17 -21 17 -6 0 -5 -7 3 -17 11 -15 11 -16 -1 -5
-20 17 -54 16 -47 -2 3 -8 -1 -20 -9 -26 -8 -7 -14 -30 -14 -55 0 -23 -3 -45
-7 -49 -4 -3 -8 -12 -9 -19 -27 -139 -49 -196 -99 -243 -18 -17 -48 -34 -66
-38 -18 -3 -30 -3 -26 0 3 3 -5 25 -17 47 -13 23 -31 67 -41 97 -9 30 -22 63
-27 73 -5 10 -6 22 -2 28 3 5 2 15 -3 22 -5 7 -8 26 -8 42 1 17 -1 35 -4 40
-5 9 -7 14 -10 33 0 4 -19 13 -41 20 -44 13 -67 16 -57 5 4 -3 0 -11 -9 -17
-9 -7 -19 -27 -23 -46 -8 -42 7 -170 22 -189 7 -7 12 -19 12 -25 1 -22 18 -81
28 -101 6 -11 12 -22 13 -25 1 -3 5 -15 9 -27 4 -13 11 -23 16 -23 4 0 16 -13
25 -29 10 -17 29 -33 43 -37 46 -13 181 -3 226 16 52 22 135 125 135 168 0 10
4 22 9 28 13 15 43 115 46 157 1 21 5 41 9 44 3 4 6 19 6 34 0 15 3 34 6 43 5
13 9 12 25 -8 10 -13 19 -29 19 -35 0 -7 7 -14 15 -17 8 -4 15 -13 15 -21 0
-8 8 -27 19 -41 13 -20 18 -42 16 -87 -3 -74 -13 -204 -21 -266 -3 -25 -7 -75
-9 -110 -1 -35 -6 -113 -10 -174 -3 -60 -8 -141 -10 -180 -2 -38 -4 -72 -5
-75 -1 -3 -1 -15 0 -28 1 -13 -4 -30 -10 -38 -7 -7 -9 -14 -5 -14 4 0 3 -6 -2
-12 -6 -7 -14 -31 -17 -53 -10 -54 -27 -107 -43 -126 -7 -8 -13 -21 -13 -28 0
-19 -47 -94 -75 -121 -14 -13 -25 -29 -25 -37 0 -7 -4 -13 -10 -13 -5 0 -10
-6 -10 -13 0 -7 -10 -17 -22 -22 -13 -6 -24 -16 -24 -22 -1 -7 -2 -18 -3 -25
0 -6 -4 -9 -7 -5 -5 5 -24 -9 -58 -43 -44 -44 -113 -100 -123 -100 -5 0 -16
-11 -23 -25 -8 -15 -22 -25 -36 -25 -12 0 -29 -7 -38 -15 -8 -8 -20 -15 -27
-15 -7 0 -20 -6 -28 -14 -9 -8 -34 -17 -56 -20 -94 -16 -344 -4 -356 16 -3 5
-15 8 -25 7 -23 -4 -174 42 -174 53 0 4 -4 8 -10 8 -28 0 -183 144 -214 198
-5 9 -18 26 -28 36 -10 11 -18 26 -18 33 0 7 -4 13 -10 13 -5 0 -10 7 -10 16
0 14 10 15 73 10 39 -3 99 -10 132 -15 33 -6 90 -11 127 -12 58 -1 153 -15
121 -18 -7 -1 -23 -16 -38 -35 -19 -25 -24 -40 -19 -63 6 -29 8 -30 65 -32 40
-1 59 2 59 10 0 7 3 9 7 6 3 -4 19 6 34 23 15 16 37 34 48 39 24 13 121 15
121 2 0 -5 13 -11 29 -14 18 -4 36 -18 46 -35 16 -26 69 -56 92 -51 4 1 24 -5
43 -14 32 -14 37 -14 53 0 9 9 17 25 17 35 0 26 -19 60 -29 53 -5 -3 -12 7
-15 20 -4 14 -11 23 -16 20 -5 -3 -12 1 -17 9 -4 7 -17 16 -28 19 -11 2 21 5
70 6 108 2 132 7 138 32 3 12 14 19 31 19 34 0 58 38 54 86 -3 38 -14 49 -60
59 -16 3 -28 12 -28 19 0 17 -34 23 -160 29 -43 2 -48 8 -26 26 28 23 128 192
122 206 -3 9 1 15 10 15 10 0 14 8 11 28 -3 22 -8 26 -27 24 -14 -2 -20 0 -16
7 4 6 3 11 -3 11 -5 0 -13 -5 -17 -11 -4 -8 -13 -4 -25 12 l-19 24 -20 -25
c-11 -14 -45 -63 -76 -110 -96 -148 -164 -199 -207 -155 -9 8 -22 15 -31 15
-8 0 -17 9 -21 19 -3 10 -15 21 -25 24 -12 3 -20 14 -20 25 0 11 -6 27 -14 34
-7 8 -19 30 -27 51 -11 31 -31 48 -59 52 -3 0 -9 3 -15 7 -16 10 -59 13 -72 5
-18 -11 -16 -71 4 -115 9 -20 15 -40 15 -44 -1 -5 2 -8 8 -8 5 0 10 -7 10 -15
0 -9 7 -18 15 -21 8 -4 15 -12 15 -19 0 -7 7 -15 15 -19 8 -3 15 -12 15 -21 0
-8 9 -15 19 -15 25 0 38 -20 14 -21 -10 -1 -38 -2 -63 -4 -25 -1 -101 -6 -170
-10 -69 -4 -154 -8 -190 -10 -36 -1 -86 -6 -112 -9 l-46 -7 -21 47 c-12 25
-21 53 -21 60 0 8 -5 14 -10 14 -6 0 -9 3 -8 8 1 4 -3 23 -9 42 -21 69 -34
115 -37 130 -2 8 -6 22 -9 30 -3 8 -13 51 -22 95 -9 44 -19 87 -22 95 -4 8 -6
18 -5 21 0 3 -6 51 -14 105 -8 54 -17 123 -19 152 -3 29 -7 57 -10 62 -6 9
-14 211 -17 420 -1 93 -4 106 -21 116 -13 7 -16 13 -8 18 6 4 11 2 11 -4 0 -6
5 -8 10 -5 6 3 8 16 5 28 -6 21 -9 104 -6 140 0 10 5 15 11 12 11 -7 45 9 75
35 11 9 56 31 100 49 44 18 93 39 108 47 16 8 35 14 43 14 9 0 25 5 37 12 12
7 27 12 32 13 20 0 115 39 115 47 0 4 6 5 13 2 7 -2 30 7 50 20 20 14 37 22
37 19 0 -4 5 -2 12 5 14 14 38 16 38 4z m974 -228 c3 -16 10 -43 15 -60 l9
-32 -102 -4 c-55 -3 -103 -3 -105 -1 -2 1 9 13 25 25 16 12 54 46 84 75 57 55
64 55 74 -3z m-1814 -616 c0 10 5 8 17 -4 12 -12 19 -36 20 -75 l2 -58 -27 10
c-14 6 -32 15 -39 21 -7 5 -19 8 -28 5 -16 -7 -30 8 -16 17 5 3 12 18 16 33 9
39 36 68 47 51 6 -10 8 -10 8 0z m2281 -77 c15 -16 30 -43 34 -60 7 -33 4 -36
-23 -22 -9 5 -38 15 -64 23 -45 11 -48 15 -48 44 0 33 6 37 54 41 11 1 32 -11
47 -26z m-2351 -136 c0 -8 11 -22 25 -31 13 -9 27 -24 30 -35 5 -15 10 -17 25
-9 24 13 50 -11 50 -45 0 -13 3 -30 6 -39 5 -13 -1 -16 -33 -16 -41 0 -69 24
-105 90 -19 34 -24 100 -8 100 6 0 10 -7 10 -15z m2390 -32 c-3 -21 -11 -47
-17 -58 -20 -36 -68 -72 -106 -78 -36 -6 -37 -5 -37 24 0 19 5 29 15 29 8 0
25 11 37 25 12 14 28 25 35 25 7 0 13 4 13 8 0 5 11 15 25 22 13 7 24 16 23
19 -1 13 2 21 11 21 4 0 5 -17 1 -37z m-1772 -829 l3 -36 -43 7 c-42 7 -99 36
-82 42 5 1 34 7 64 12 30 5 55 9 55 10 1 0 2 -15 3 -35z m1082 -7 c0 -8 -7
-14 -15 -14 -16 0 -19 9 -8 20 11 11 23 8 23 -6z m-1212 -270 c7 -15 17 -27
21 -27 14 0 59 -46 66 -69 8 -27 -11 -77 -33 -86 -10 -3 -35 -9 -56 -12 l-39
-5 7 58 c12 91 14 154 4 154 -4 0 -8 5 -8 11 0 19 25 3 38 -24z m1499 -66 c18
-40 30 -78 27 -82 -3 -5 -16 -6 -30 -3 -13 3 -31 1 -39 -6 -17 -14 -52 -5 -64
18 -5 9 -12 38 -15 65 -6 38 -4 47 8 47 8 0 18 9 21 20 3 11 13 20 21 20 8 0
14 5 14 11 0 22 26 -19 57 -90z m-2833 -103 c15 -40 32 -82 36 -93 5 -11 17
-47 26 -80 32 -112 1 -336 -54 -398 -106 -118 -206 -207 -243 -217 -27 -7 -37
-15 -32 -23 4 -7 0 -7 -10 2 -13 10 -17 10 -17 1 0 -7 -6 -10 -14 -7 -8 3 -20
-1 -26 -9 -14 -16 -30 -19 -30 -4 0 6 18 37 40 69 22 32 40 62 40 65 0 4 11
22 25 40 14 18 28 48 31 67 4 19 10 39 15 44 12 16 60 233 74 335 16 123 46
214 88 268 17 21 23 14 51 -60z m2580 -33 c3 -16 11 -32 17 -34 6 -2 20 -12
30 -22 11 -11 33 -19 49 -19 17 0 30 -2 30 -5 0 -12 -73 -149 -86 -162 -8 -8
-14 -18 -14 -21 0 -4 -22 -32 -50 -62 -27 -30 -51 -57 -52 -60 -6 -11 -97 -80
-106 -80 -5 0 -21 -9 -35 -20 -14 -11 -39 -23 -56 -26 -17 -4 -36 -13 -42 -20
-6 -8 -24 -14 -40 -14 -15 0 -31 -5 -34 -10 -4 -6 -13 -7 -22 -1 -9 5 -31 4
-52 -1 -20 -5 -40 -9 -46 -8 -5 0 -43 1 -82 2 -40 2 -73 5 -73 9 0 3 -6 6 -12
7 -7 0 -26 4 -43 8 -16 3 -37 7 -45 8 -9 1 -20 5 -25 8 -6 3 -25 9 -43 13 -18
4 -46 18 -62 32 -16 13 -34 22 -40 18 -5 -3 -18 7 -27 23 -10 16 -23 27 -30
25 -6 -2 -14 6 -18 18 -4 12 -20 33 -36 47 -16 13 -29 29 -29 35 0 7 -14 32
-30 56 -17 24 -30 52 -30 62 0 10 -9 20 -20 24 -25 8 -24 56 2 63 10 2 18 8
18 12 0 7 30 18 69 26 13 2 20 10 40 42 10 17 81 5 81 -13 0 -9 10 -13 27 -11
15 2 41 -5 59 -16 18 -10 56 -21 86 -23 29 -3 64 -7 78 -10 14 -3 57 -7 95
-10 39 -2 72 -5 75 -6 3 -1 10 0 15 1 6 1 44 4 85 6 104 5 154 13 158 24 2 5
25 12 52 16 27 4 58 15 69 25 11 11 24 19 29 19 4 0 18 9 30 20 12 11 30 21
41 23 11 2 24 6 27 10 10 10 12 6 18 -28z m462 -65 c8 0 14 -10 14 -22 0 -31
-26 -102 -38 -106 -5 -1 -27 8 -47 22 -21 14 -41 23 -46 20 -5 -3 -12 2 -15
10 -3 9 -16 16 -29 16 -18 0 -22 4 -18 20 3 11 10 23 16 27 13 8 118 21 135
17 8 -2 20 -4 28 -4z m-1771 -100 c-1 -20 -55 -80 -55 -63 0 4 -7 -1 -15 -11
-12 -16 -15 -16 -15 -4 0 8 9 23 20 33 11 10 17 22 14 26 -3 5 -1 9 5 9 6 0
13 11 17 25 5 19 10 23 18 15 7 -5 12 -19 11 -30z m1603 -85 c28 -14 55 -25
62 -25 13 0 40 -24 40 -36 0 -4 -12 -28 -26 -52 -22 -38 -29 -43 -38 -30 -6 8
-17 13 -23 11 -7 -3 -13 0 -13 6 0 6 -9 11 -20 11 -10 0 -24 9 -30 19 -6 12
-17 17 -28 14 -11 -3 -22 2 -25 10 -7 18 2 57 13 57 4 0 10 9 13 20 7 26 15
25 75 -5z m-1523 -85 c3 -6 -7 -22 -24 -36 -17 -14 -31 -30 -31 -35 0 -6 -13
-24 -30 -42 -16 -18 -30 -35 -30 -39 0 -5 -7 -8 -15 -8 -8 0 -15 6 -15 14 0 8
-6 16 -12 19 -20 6 4 63 24 59 8 -1 26 9 39 23 13 13 29 25 35 25 6 0 17 7 24
15 14 17 26 19 35 5z m1404 -107 c14 -12 47 -27 73 -34 57 -13 57 -12 -5 -105
l-42 -63 -22 26 c-13 14 -23 30 -23 35 0 4 -7 8 -15 8 -9 0 -12 6 -8 16 4 10
-4 25 -20 40 -51 47 -44 106 12 102 14 -2 37 -12 50 -25z m-1328 -95 c-19 -43
-33 -81 -37 -106 -3 -18 -8 -22 -31 -26 -19 -4 -21 0 -26 50 -2 22 105 154
111 136 2 -6 -6 -30 -17 -54z m1155 -87 c10 -22 25 -41 32 -41 6 0 12 -11 12
-24 0 -14 9 -32 22 -40 26 -19 18 -30 -52 -74 l-49 -31 -7 35 c-3 19 -10 34
-16 34 -5 0 -6 5 -3 10 4 6 4 19 0 28 -4 9 -10 33 -12 52 -2 19 -8 39 -14 45
-16 16 -10 46 13 65 22 17 23 17 38 0 9 -10 25 -37 36 -59z m-943 25 c32 -16
42 -27 37 -37 -4 -8 -11 -34 -16 -59 -4 -25 -8 -47 -9 -50 -1 -3 -5 -26 -9
-53 -10 -55 -20 -65 -45 -43 -10 9 -23 16 -30 16 -6 0 -14 6 -17 14 -3 8 -16
17 -30 20 -30 8 -32 38 -4 66 11 11 20 27 20 36 0 9 6 30 14 47 8 18 16 40 20
50 7 22 16 22 69 -7z m723 -98 c9 -40 12 -64 13 -81 1 -10 4 -16 9 -14 4 3 6
-23 4 -57 l-4 -63 -51 -2 -52 -1 -3 72 c-2 40 -4 96 -6 125 -3 44 0 53 18 61
49 24 60 17 72 -40z m-518 -28 c-3 -58 -1 -69 11 -65 11 5 12 3 1 -10 -7 -8
-14 -39 -16 -68 -1 -28 -3 -56 -3 -61 -1 -5 -8 -2 -18 5 -9 8 -18 13 -20 12
-26 -20 -25 33 2 121 8 27 15 57 15 67 0 22 17 69 26 69 3 0 4 -32 2 -70z
m271 23 c-3 -45 0 -75 9 -69 4 2 6 -13 4 -33 -3 -27 2 -43 15 -56 16 -17 16
-18 1 -12 -15 5 -16 1 -12 -26 3 -18 7 -37 9 -44 5 -15 -5 -24 -18 -16 -18 11
-56 12 -62 3 -5 -7 -44 3 -64 17 -2 1 -3 40 -1 85 5 182 3 178 78 178 41 0 43
-1 41 -27z"/>
<path d="M2785 3392 c3 -3 -3 -11 -12 -18 -23 -16 -30 -145 -27 -499 2 -277
11 -360 41 -398 19 -23 53 -35 53 -18 0 5 12 8 26 5 16 -3 23 -1 19 6 -3 5 0
7 8 5 7 -3 29 8 48 24 19 17 40 31 47 31 6 0 12 5 12 11 0 6 11 19 23 30 21
16 24 28 18 70 -1 3 -30 5 -66 6 -36 0 -68 3 -71 5 -5 5 -9 612 -4 633 1 6 2
29 1 53 -1 40 -3 42 -29 40 -15 -1 -34 2 -42 7 -15 9 -54 15 -45 7z"/>
<path d="M2061 3342 c-16 -46 -6 -193 16 -252 4 -8 8 -28 10 -45 3 -16 9 -34
14 -40 5 -5 9 -17 9 -27 0 -10 5 -18 10 -18 6 0 10 -8 10 -19 0 -28 77 -100
101 -93 5 1 9 -5 9 -14 0 -8 5 -12 10 -9 6 3 10 1 10 -5 0 -6 4 -9 8 -6 4 2
14 1 21 -3 20 -13 163 27 179 50 7 11 30 35 49 54 20 19 32 35 28 35 -5 0 0 7
11 15 10 8 15 15 10 15 -6 0 -1 7 10 15 10 8 15 15 10 15 -5 0 -1 9 8 19 10
11 18 38 19 64 1 25 5 40 8 35 4 -6 10 25 14 68 3 43 7 88 8 99 3 24 -37 65
-62 65 -9 0 -27 -9 -38 -20 -22 -20 -22 -20 -26 3 -3 22 -4 21 -14 -4 -6 -14
-14 -48 -17 -75 -12 -111 -29 -169 -70 -242 -16 -28 -51 -54 -60 -45 -3 3 -6
-1 -6 -10 0 -23 -26 -21 -50 3 -27 27 -60 103 -60 140 0 21 -4 29 -12 24 -6
-4 -9 -3 -6 2 9 15 -12 128 -25 136 -9 6 -9 8 1 8 19 0 11 65 -8 65 -8 0 -14
8 -14 18 1 13 -2 15 -10 8 -7 -6 -17 -6 -26 -1 -8 6 -27 10 -41 10 -21 0 -28
-7 -38 -38z"/>
<path d="M4092 1208 c6 -17 66 -40 73 -28 3 5 -8 16 -24 25 -36 18 -54 19 -49
3z"/>
<path d="M3954 1158 c10 -52 26 -58 26 -10 0 32 -4 42 -16 42 -13 0 -15 -7
-10 -32z"/>
<path d="M4055 1110 c-19 -20 -26 -33 -19 -40 7 -7 20 0 39 20 19 20 26 33 19
40 -7 7 -20 0 -39 -20z"/>
<path d="M4170 1127 c0 -21 43 -57 58 -48 9 5 6 13 -10 28 -34 30 -48 36 -48
20z"/>
<path d="M3921 1049 c-15 -6 -21 -13 -15 -19 11 -11 74 1 77 15 3 14 -33 16
-62 4z"/>
<path d="M4153 1005 c29 -25 47 -32 47 -17 0 15 -36 42 -56 42 -16 -1 -15 -4
9 -25z"/>
<path d="M4036 984 c-10 -14 -16 -30 -14 -35 4 -11 58 38 58 52 0 19 -28 8
-44 -17z"/>
<path d="M3910 947 c0 -17 29 -57 41 -57 15 0 10 23 -10 48 -22 25 -31 28 -31
9z"/>
<path d="M4313 949 c-18 -5 -33 -16 -33 -24 0 -18 -1 -18 39 -4 17 6 31 17 31
25 0 8 -1 14 -2 13 -2 0 -18 -5 -35 -10z"/>
<path d="M4156 931 c-7 -10 39 -61 54 -61 6 0 10 6 9 13 0 17 -56 59 -63 48z"/>
<path d="M4025 880 c-8 -13 23 -61 43 -68 19 -6 13 21 -12 52 -16 20 -26 25
-31 16z"/>
<path d="M3857 873 c-10 -10 -8 -61 2 -67 11 -7 21 17 21 50 0 23 -10 31 -23
17z"/>
<path d="M1782 818 c-16 -43 -5 -49 24 -13 29 36 30 45 6 45 -11 0 -22 -12
-30 -32z"/>
<path d="M4262 827 c-22 -24 -29 -47 -14 -47 12 0 52 44 52 58 0 18 -14 14
-38 -11z"/>
<path d="M4360 820 c-24 -58 8 -48 41 13 8 13 6 17 -9 17 -12 0 -24 -11 -32
-30z"/>
<path d="M3776 801 c-8 -13 23 -83 34 -76 8 5 6 43 -5 73 -5 14 -21 16 -29 3z"/>
<path d="M3947 793 c-9 -9 33 -53 50 -53 19 0 16 10 -13 36 -28 27 -28 27 -37
17z"/>
<path d="M4126 776 c-3 -13 -9 -31 -12 -40 -3 -9 -1 -16 5 -16 13 0 42 61 35
72 -10 15 -22 8 -28 -16z"/>
<path d="M1847 742 c-10 -10 -17 -27 -17 -37 0 -16 4 -15 30 10 17 16 30 32
30 37 0 15 -27 8 -43 -10z"/>
<path d="M1724 689 c7 -36 22 -57 32 -46 11 10 -10 70 -25 75 -11 4 -13 -3 -7
-29z"/>
<path d="M4300 693 c0 -37 16 -61 30 -47 7 7 7 20 -1 42 -13 39 -29 42 -29 5z"/>
<path d="M3925 700 c-8 -14 13 -70 27 -70 6 0 8 13 4 32 -8 38 -21 54 -31 38z"/>
<path d="M4736 680 c-36 -43 -22 -60 17 -21 22 22 28 34 21 41 -8 8 -19 2 -38
-20z"/>
<path d="M1962 674 c4 -19 55 -51 65 -40 4 4 -5 19 -22 32 -35 28 -48 30 -43
8z"/>
<path d="M4046 674 c-11 -29 -6 -64 9 -64 10 0 15 10 15 34 0 38 -14 55 -24
30z"/>
<path d="M3822 655 c-26 -29 -27 -35 -9 -35 16 0 47 32 47 48 0 19 -15 14 -38
-13z"/>
<path d="M4172 650 c-16 -21 -19 -30 -9 -30 13 0 36 21 51 48 15 26 -21 11
-42 -18z"/>
<path d="M1853 626 c-15 -13 -25 -28 -20 -32 8 -9 59 26 65 44 6 19 -15 14
-45 -12z"/>
<path d="M2094 568 c7 -34 22 -56 32 -46 9 10 -16 78 -28 78 -6 0 -8 -12 -4
-32z"/>
<path d="M3686 573 c-14 -15 -22 -31 -19 -36 5 -9 63 41 63 55 0 16 -20 8 -44
-19z"/>
<path d="M1632 556 c-19 -32 -19 -46 -1 -46 9 0 39 53 39 70 0 21 -19 9 -38
-24z"/>
<path d="M4209 563 c-7 -16 -15 -31 -17 -35 -2 -5 3 -8 10 -8 8 0 22 16 31 35
13 27 14 35 3 35 -7 0 -19 -12 -27 -27z"/>
<path d="M1749 562 c-24 -26 -30 -40 -20 -46 9 -6 61 41 61 55 0 15 -24 9 -41
-9z"/>
<path d="M1947 573 c-10 -10 -8 -73 2 -73 9 0 21 34 21 63 0 17 -11 22 -23 10z"/>
<path d="M4322 557 c-22 -24 -29 -47 -14 -47 12 0 52 44 52 58 0 18 -14 14
-38 -11z"/>
<path d="M4073 546 c-15 -13 -25 -28 -20 -32 8 -9 59 26 65 44 6 19 -15 14
-45 -12z"/>
<path d="M3855 549 c-11 -16 1 -21 34 -14 44 9 48 25 7 25 -19 0 -38 -5 -41
-11z"/>
<path d="M2245 531 c-8 -15 4 -71 16 -71 10 0 12 13 9 45 -2 26 -16 40 -25 26z"/>
<path d="M3528 535 c-2 -3 -2 -22 1 -43 7 -42 27 -41 24 2 -1 28 -15 51 -25
41z"/>
<path d="M4818 535 c-9 -9 7 -80 17 -77 6 2 9 17 7 35 -3 32 -14 52 -24 42z"/>
<path d="M3962 500 c-32 -43 -27 -58 8 -25 28 27 40 55 22 55 -5 0 -18 -13
-30 -30z"/>
<path d="M3765 499 c-5 -8 2 -21 21 -36 37 -29 46 -10 11 24 -18 19 -27 22
-32 12z"/>
<path d="M1803 481 c-23 -19 -31 -41 -14 -41 13 0 61 40 61 51 0 15 -23 10
-47 -10z"/>
<path d="M4376 479 c-18 -14 -24 -25 -18 -31 12 -12 62 18 62 38 0 20 -13 17
-44 -7z"/>
<path d="M1526 469 c-8 -19 9 -69 24 -69 13 0 12 18 -4 55 -11 23 -15 26 -20
14z"/>
<path d="M4096 472 c-7 -11 21 -72 34 -72 13 0 13 4 -4 45 -15 36 -21 41 -30
27z"/>
<path d="M1990 444 c-41 -35 -25 -55 19 -23 17 12 31 26 31 30 0 20 -21 17
-50 -7z"/>
<path d="M2105 460 c-7 -11 31 -60 47 -60 16 0 7 27 -16 49 -16 16 -26 19 -31
11z"/>
<path d="M2373 453 c-31 -16 -44 -33 -24 -33 24 0 71 24 71 36 0 17 -7 17 -47
-3z"/>
<path d="M3280 441 c-20 -16 -29 -30 -23 -34 6 -4 25 6 43 22 43 37 23 49 -20
12z"/>
<path d="M4676 463 c-7 -7 43 -63 56 -63 4 0 8 6 7 13 0 15 -54 58 -63 50z"/>
<path d="M1640 454 c0 -16 43 -74 51 -69 12 8 -22 75 -38 75 -7 0 -13 -3 -13
-6z"/>
<path d="M3390 452 c0 -10 43 -52 53 -52 12 0 7 19 -10 40 -18 20 -43 27 -43
12z"/>
<path d="M3644 446 c-10 -8 -16 -17 -12 -21 9 -9 78 14 78 26 0 14 -44 11 -66
-5z"/>
<path d="M4220 446 c0 -20 45 -71 53 -60 7 11 -31 74 -44 74 -5 0 -9 -6 -9
-14z"/>
<path d="M3840 400 c-29 -40 -17 -52 17 -17 20 19 24 30 16 38 -8 8 -17 2 -33
-21z"/>
<path d="M2548 395 c-21 -28 -22 -35 -5 -35 7 0 23 14 35 30 20 27 21 30 5 30
-10 0 -26 -11 -35 -25z"/>
<path d="M2680 412 c0 -12 44 -52 58 -52 19 0 14 20 -10 41 -24 19 -48 25 -48
11z"/>
<path d="M3970 409 c0 -14 41 -48 58 -49 21 0 13 18 -17 39 -33 24 -41 26 -41
10z"/>
<path d="M1839 398 c-1 -7 -3 -25 -5 -40 -3 -31 14 -48 27 -27 13 19 7 72 -8
77 -7 2 -14 -2 -14 -10z"/>
<path d="M3125 398 c-9 -22 -2 -68 10 -71 14 -3 19 63 6 76 -7 7 -12 5 -16 -5z"/>
<path d="M4410 366 c0 -25 5 -46 10 -46 11 0 11 1 13 49 1 20 -3 36 -10 38 -9
3 -13 -9 -13 -41z"/>
<path d="M2245 389 c-4 -6 -5 -11 -4 -13 39 -26 62 -36 71 -30 7 5 5 12 -8 21
-36 27 -53 33 -59 22z"/>
<path d="M3530 380 c0 -14 59 -42 72 -34 7 4 2 13 -13 25 -26 20 -59 25 -59 9z"/>
<path d="M4820 380 c0 -16 61 -43 72 -32 7 7 0 16 -20 26 -35 18 -52 20 -52 6z"/>
<path d="M1620 319 c0 -48 16 -44 22 6 3 24 0 35 -9 35 -9 0 -13 -14 -13 -41z"/>
<path d="M2418 347 c-32 -13 -37 -27 -9 -27 31 0 73 19 66 30 -7 12 -21 11
-57 -3z"/>
<path d="M2910 319 c0 -24 4 -38 10 -34 6 3 10 22 10 41 0 19 -4 34 -10 34 -5
0 -10 -18 -10 -41z"/>
<path d="M3728 354 c-4 -3 -14 -7 -24 -8 -26 -4 -30 -26 -4 -26 26 0 60 17 60
30 0 11 -23 14 -32 4z"/>
<path d="M4190 319 c0 -52 23 -48 27 4 1 27 -2 37 -13 37 -10 0 -14 -12 -14
-41z"/>
<path d="M1482 327 c-22 -23 -29 -47 -14 -47 18 0 56 50 46 60 -7 7 -18 3 -32
-13z"/>
<path d="M2137 343 c-13 -13 -7 -21 25 -32 44 -16 59 3 20 23 -35 18 -36 18
-45 9z"/>
<path d="M2771 327 c-21 -24 -28 -47 -13 -47 9 0 33 25 46 47 12 22 -11 22
-33 0z"/>
<path d="M3420 336 c0 -18 60 -40 73 -27 6 6 -3 15 -21 25 -38 20 -52 20 -52
2z"/>
<path d="M4052 321 c-13 -18 -18 -32 -12 -36 12 -7 49 33 50 53 0 20 -15 14
-38 -17z"/>
<path d="M4705 340 c-4 -6 9 -17 29 -25 44 -18 46 -18 46 -1 0 8 -14 19 -31
25 -39 13 -36 13 -44 1z"/>
<path d="M2041 304 c-22 -28 -27 -44 -13 -44 12 0 52 44 52 58 0 20 -17 14
-39 -14z"/>
<path d="M2610 312 c0 -27 30 -66 42 -54 7 7 3 21 -11 41 -26 36 -31 38 -31
13z"/>
<path d="M3332 307 c-23 -24 -29 -47 -13 -47 11 0 51 48 51 61 0 16 -16 10
-38 -14z"/>
<path d="M3896 322 c-7 -12 33 -74 43 -67 5 3 3 18 -5 35 -17 33 -30 44 -38
32z"/>
<path d="M4616 301 c-20 -21 -24 -31 -15 -37 8 -4 21 3 36 20 42 49 24 64 -21
17z"/>
<path d="M1733 296 c-15 -13 -25 -27 -21 -31 7 -8 68 34 68 47 0 15 -18 8 -47
-16z"/>
<path d="M1896 291 c-20 -21 -24 -31 -15 -37 8 -4 21 3 36 20 42 49 24 64 -21
17z"/>
<path d="M3023 296 c-15 -13 -25 -27 -21 -31 7 -8 68 34 68 47 0 15 -18 8 -47
-16z"/>
<path d="M3185 290 c-29 -30 -27 -53 2 -34 24 15 46 51 35 58 -5 3 -22 -8 -37
-24z"/>
<path d="M4312 304 c-21 -14 -31 -44 -14 -44 12 1 52 38 52 49 0 15 -12 14
-38 -5z"/>
<path d="M4477 292 c-30 -31 -34 -42 -14 -41 16 0 60 56 49 63 -5 3 -21 -7
-35 -22z"/>
<path d="M2490 272 c0 -12 44 -52 58 -52 18 0 14 14 -11 38 -24 22 -47 29 -47
14z"/>
<path d="M3780 272 c0 -10 43 -52 53 -52 16 0 5 30 -15 44 -25 18 -38 20 -38
8z"/>
<path d="M2271 241 c-24 -20 -30 -30 -22 -36 12 -7 71 40 71 57 0 14 -14 8
-49 -21z"/>
<path d="M3557 245 c-40 -36 -23 -51 19 -17 19 15 34 30 34 35 0 14 -26 6 -53
-18z"/>
<path d="M4846 246 c-38 -32 -25 -53 15 -24 16 12 29 28 29 35 0 18 -11 16
-44 -11z"/>
<path d="M2380 209 c0 -52 24 -48 28 4 2 28 -1 37 -12 37 -12 0 -16 -11 -16
-41z"/>
<path d="M3670 210 c0 -22 5 -40 10 -40 6 0 10 18 10 40 0 22 -4 40 -10 40 -5
0 -10 -18 -10 -40z"/>
<path d="M1780 221 c0 -4 10 -20 21 -35 15 -19 25 -24 32 -17 8 8 4 18 -13 36
-24 25 -40 32 -40 16z"/>
<path d="M3082 195 c24 -36 33 -42 43 -25 7 12 -34 60 -52 60 -9 0 -6 -11 9
-35z"/>
<path d="M4360 218 c1 -22 37 -61 49 -54 8 5 5 16 -9 37 -22 30 -40 38 -40 17z"/>
<path d="M1562 208 c6 -18 57 -53 65 -45 9 9 -37 57 -55 57 -7 0 -12 -5 -10
-12z"/>
<path d="M2850 207 c0 -15 54 -49 64 -40 8 9 -34 53 -51 53 -7 0 -13 -6 -13
-13z"/>
<path d="M4140 208 c1 -20 50 -52 62 -40 6 6 0 17 -18 31 -30 24 -44 27 -44 9z"/>
<path d="M770 202 c0 -16 49 -54 60 -47 8 5 5 15 -11 31 -22 23 -49 32 -49 16z"/>
<path d="M1941 184 c-22 -28 -27 -44 -13 -44 12 0 52 44 52 58 0 20 -17 14
-39 -14z"/>
<path d="M2060 196 c0 -17 47 -49 60 -41 12 7 -29 55 -47 55 -7 0 -13 -6 -13
-14z"/>
<path d="M3226 179 c-28 -32 -28 -51 1 -33 24 15 46 51 35 58 -5 3 -21 -8 -36
-25z"/>
<path d="M3342 198 c7 -20 55 -51 68 -43 8 5 5 14 -11 31 -23 25 -64 33 -57
12z"/>
<path d="M4516 184 c-28 -28 -33 -44 -15 -44 17 0 60 50 54 61 -8 13 -9 12
-39 -17z"/>
<path d="M4630 201 c0 -11 48 -51 61 -51 18 0 8 28 -16 44 -27 18 -45 21 -45
7z"/>
<path d="M1430 185 c0 -30 11 -65 21 -65 14 0 10 44 -6 66 -14 19 -14 19 -15
-1z"/>
<path d="M2716 191 c-9 -14 12 -71 25 -71 14 0 11 44 -4 65 -10 13 -16 15 -21
6z"/>
<path d="M4000 185 c0 -20 22 -65 32 -65 7 0 4 30 -8 68 -5 17 -24 15 -24 -3z"/>
<path d="M1321 151 c-22 -18 -30 -30 -23 -35 7 -4 26 6 43 22 41 38 24 49 -20
13z"/>
<path d="M2606 154 c-19 -17 -25 -29 -19 -35 12 -12 76 38 67 52 -8 14 -16 11
-48 -17z"/>
<path d="M3903 158 c-18 -13 -33 -29 -33 -35 0 -19 11 -16 44 10 40 33 31 54
-11 25z"/>
<path d="M1696 151 c-4 -6 1 -25 10 -43 21 -42 21 -41 33 -34 7 5 7 15 -1 34
-16 38 -34 56 -42 43z"/>
<path d="M4266 151 c-4 -5 3 -26 15 -46 26 -44 46 -33 24 13 -18 36 -31 47
-39 33z"/>
<path d="M2474 114 c9 -44 23 -65 31 -43 7 20 -9 72 -24 77 -11 4 -12 -4 -7
-34z"/>
<path d="M2980 146 c0 -21 31 -76 40 -71 12 7 -10 67 -28 73 -7 2 -12 1 -12
-2z"/>
<path d="M3765 113 c3 -21 10 -42 15 -46 15 -16 21 14 10 48 -16 48 -34 46
-25 -2z"/>
<path d="M903 133 c-13 -2 -23 -11 -23 -20 0 -12 8 -14 36 -10 42 7 49 11 39
26 -6 11 -13 12 -52 4z"/>
<path d="M2193 133 c-27 -5 -31 -33 -5 -33 33 0 62 12 62 26 0 14 -14 15 -57
7z"/>
<path d="M3471 129 c-17 -7 -21 -13 -14 -20 12 -12 72 1 76 16 3 14 -33 16
-62 4z"/>
<path d="M4768 133 c-17 -3 -28 -11 -28 -20 0 -12 7 -14 37 -8 46 8 55 13 48
26 -6 9 -9 9 -57 2z"/>
<path d="M1517 93 c-4 -3 -7 -21 -7 -40 0 -23 5 -33 15 -33 11 0 15 11 15 40
0 38 -8 49 -23 33z"/>
<path d="M2340 96 c0 -15 44 -75 51 -70 15 9 10 30 -14 52 -22 21 -37 28 -37
18z"/>
<path d="M2807 93 c-4 -3 -7 -18 -7 -32 1 -25 1 -25 15 -7 23 30 15 63 -8 39z"/>
<path d="M3638 94 c-8 -8 20 -54 33 -54 14 0 10 12 -9 38 -10 13 -21 20 -24
16z"/>
<path d="M4090 74 c0 -31 23 -28 28 4 2 15 -2 22 -12 22 -11 0 -16 -9 -16 -26z"/>
<path d="M1980 82 c0 -12 44 -52 58 -52 19 0 14 20 -10 41 -24 19 -48 25 -48
11z"/>
<path d="M3270 80 c0 -13 41 -50 57 -50 19 0 16 14 -10 38 -24 23 -47 29 -47
12z"/>
<path d="M4560 80 c0 -5 4 -10 9 -10 6 0 13 5 16 10 3 6 -1 10 -9 10 -9 0 -16
-4 -16 -10z"/>
<path d="M1838 43 c-31 -32 -35 -43 -15 -43 20 0 49 36 45 55 -2 13 -8 11 -30
-12z"/>
<path d="M3132 50 c-20 -22 -21 -25 -7 -28 22 -5 38 11 33 34 -3 17 -5 16 -26
-6z"/>
<path d="M1280 44 c0 -16 23 -44 36 -44 13 0 12 4 -3 25 -17 23 -33 32 -33 19z"/>
<path d="M1651 28 c-10 -27 -7 -33 14 -25 17 7 21 47 5 47 -6 0 -14 -10 -19
-22z"/>
<path d="M2570 41 c0 -21 13 -41 26 -41 17 0 17 5 4 31 -11 20 -30 26 -30 10z"/>
<path d="M2946 43 c-9 -9 -7 -33 3 -33 12 0 22 28 12 34 -5 3 -11 3 -15 -1z"/>
<path d="M947 23 c-13 -12 -7 -23 13 -23 13 0 18 5 14 15 -7 16 -17 19 -27 8z"/>
<path d="M2230 15 c0 -8 7 -15 15 -15 8 0 15 7 15 15 0 8 -7 15 -15 15 -8 0
-15 -7 -15 -15z"/>
<path d="M1395 10 c-3 -5 1 -10 10 -10 9 0 13 5 10 10 -3 6 -8 10 -10 10 -2 0
-7 -4 -10 -10z"/>
<path d="M2690 10 c0 -5 5 -10 11 -10 5 0 7 5 4 10 -3 6 -8 10 -11 10 -2 0 -4
-4 -4 -10z"/>
</g>
</svg>
