<?xml version="1.0" standalone="no"?>
<!DOCTYPE svg PUBLIC "-//W3C//DTD SVG 20010904//EN"
 "http://www.w3.org/TR/2001/REC-SVG-20010904/DTD/svg10.dtd">
<svg version="1.0" xmlns="http://www.w3.org/2000/svg"
 width="3148.000000pt" height="3148.000000pt" viewBox="0 0 3148.000000 3148.000000"
 preserveAspectRatio="xMidYMid meet">
<metadata>
Created by potrace 1.14, written by Peter Selinger 2001-2017
</metadata>
<g transform="translate(0.000000,3148.000000) scale(0.100000,-0.100000)"
fill="#000000" stroke="none">
<path d="M19695 31383 c-581 -28 -836 -79 -1140 -229 -215 -105 -506 -300
-687 -458 l-88 -77 -72 55 c-293 219 -641 388 -924 447 -326 68 -604 94 -922
86 -397 -10 -627 -65 -1367 -327 -143 -50 -357 -125 -475 -167 -854 -298
-1316 -519 -1894 -906 -640 -428 -1126 -833 -1519 -1267 -494 -545 -720 -840
-1224 -1596 -313 -469 -501 -780 -690 -1144 -39 -74 -148 -282 -242 -461 -94
-180 -187 -362 -207 -405 -20 -44 -52 -113 -71 -154 -164 -357 -486 -1267
-620 -1750 -37 -137 -285 -1118 -327 -1295 -14 -60 -44 -186 -66 -280 -23 -93
-61 -260 -85 -370 -24 -110 -72 -322 -105 -470 -162 -711 -267 -1248 -446
-2265 -14 -80 -34 -192 -44 -250 -47 -256 -94 -555 -150 -935 -77 -531 -124
-845 -160 -1080 -132 -854 -199 -1480 -260 -2420 -40 -621 -48 -720 -130
-1535 -92 -920 -116 -1184 -140 -1560 -46 -717 -131 -1852 -165 -2200 -23
-227 -109 -986 -151 -1320 -65 -527 -175 -1180 -360 -2135 -14 -71 -39 -200
-55 -285 -16 -85 -57 -288 -90 -450 -132 -641 -168 -924 -169 -1312 0 -235 6
-305 56 -603 56 -338 132 -537 281 -735 181 -242 482 -461 724 -530 94 -26
263 -37 351 -21 305 53 610 275 935 681 133 165 294 398 363 524 23 42 45 78
49 80 4 3 13 -46 20 -109 23 -209 84 -431 161 -587 138 -279 384 -458 695
-504 238 -36 457 5 709 134 268 137 443 326 606 657 63 126 170 414 170 457 0
41 22 23 59 -49 157 -313 424 -592 675 -708 108 -51 177 -67 306 -72 102 -5
126 -2 215 21 289 76 582 313 805 651 161 246 260 497 284 725 l11 105 239
-350 c436 -638 463 -674 753 -987 328 -354 679 -631 1118 -880 313 -178 507
-261 1025 -439 160 -55 631 -177 770 -200 201 -32 420 -42 770 -36 471 10 630
26 960 102 443 102 571 150 914 340 270 150 401 239 718 488 265 208 359 288
512 437 224 218 374 397 712 847 77 104 131 168 135 160 3 -6 9 -37 13 -67 11
-88 66 -388 87 -468 27 -106 102 -277 160 -365 118 -180 326 -357 559 -476
315 -160 509 -209 728 -182 238 29 523 166 662 318 190 207 294 509 307 895 3
93 9 168 13 168 4 0 33 -34 65 -76 133 -178 286 -328 486 -480 195 -147 361
-242 614 -349 265 -113 419 -148 650 -148 373 1 587 72 761 254 227 239 315
574 285 1089 -36 613 -90 875 -551 2690 -251 987 -304 1309 -302 1845 1 290
42 1294 63 1540 19 225 80 780 90 817 5 21 7 59 4 85 -6 45 -1 59 83 233 169
350 247 561 377 1020 258 909 322 1290 297 1756 -7 115 -19 265 -27 334 -12
107 -13 131 -1 171 24 80 36 222 46 554 5 176 16 376 25 445 8 69 32 276 54
460 39 325 91 677 205 1385 177 1097 268 1847 306 2520 36 656 37 2237 1 2920
-28 523 -149 1906 -222 2535 -89 764 -225 1516 -369 2040 -147 532 -367 1097
-644 1648 -175 349 -323 575 -676 1032 -91 118 -217 283 -280 365 -63 83 -159
204 -214 270 -111 136 -589 616 -771 775 -290 254 -622 482 -1035 712 -408
227 -561 297 -915 418 -461 156 -587 182 -1105 220 -242 18 -658 24 -885 13z
m840 -338 c507 -37 585 -52 970 -180 396 -131 523 -187 915 -405 596 -331 941
-597 1470 -1137 214 -217 263 -276 633 -758 495 -644 582 -774 773 -1156 57
-114 104 -210 104 -212 0 -3 18 -43 40 -90 281 -603 473 -1197 610 -1887 159
-796 233 -1391 364 -2935 86 -1004 101 -1438 93 -2685 -7 -959 -18 -1232 -78
-1830 -43 -433 -145 -1180 -234 -1718 -52 -316 -157 -986 -179 -1149 -25 -180
-106 -878 -106 -912 0 -17 -3 -31 -7 -31 -5 0 -25 31 -45 69 -48 89 -146 210
-217 268 -185 152 -505 197 -756 107 -100 -36 -96 -37 -110 31 -18 82 -60 196
-104 280 -29 57 -66 99 -201 232 -111 109 -183 173 -221 193 l-56 30 -7 117
c-32 546 -77 925 -147 1253 -118 553 -274 912 -623 1433 -494 737 -743 986
-1501 1499 -335 227 -605 392 -980 598 -143 79 -357 201 -475 273 -118 71
-292 174 -387 228 -322 185 -391 229 -878 563 -805 551 -1056 745 -1265 978
-312 346 -552 717 -753 1164 -25 55 -58 128 -75 164 -32 70 -164 365 -187 417
-22 50 -78 87 -133 87 -57 0 -149 -27 -194 -57 -19 -13 -52 -56 -79 -102 -115
-197 -234 -325 -353 -381 -39 -18 -148 -51 -241 -74 -232 -57 -274 -70 -554
-172 -135 -49 -421 -148 -635 -219 -660 -220 -892 -324 -1241 -555 -173 -114
-262 -186 -452 -363 -229 -213 -391 -396 -609 -687 -301 -399 -414 -575 -705
-1094 -78 -140 -214 -374 -302 -520 -199 -330 -760 -1347 -926 -1677 -97 -194
-421 -900 -421 -918 0 -3 -103 -226 -195 -420 -213 -451 -353 -856 -425 -1230
-21 -109 -92 -566 -105 -678 -7 -55 -9 -59 -49 -79 -67 -33 -172 -116 -229
-178 -28 -32 -79 -104 -112 -160 -49 -83 -64 -100 -80 -97 -11 3 -56 15 -100
27 -66 19 -106 23 -235 24 -151 1 -158 0 -249 -32 -361 -126 -659 -404 -841
-786 -192 -401 -254 -854 -255 -1861 0 -482 8 -570 85 -1030 102 -611 211
-957 450 -1435 237 -475 436 -777 607 -922 152 -129 380 -253 537 -293 135
-34 298 -43 405 -21 137 28 220 73 358 193 l61 54 22 -68 c29 -87 202 -573
323 -908 280 -772 478 -1250 733 -1772 69 -142 178 -370 241 -508 293 -637
539 -1105 749 -1428 60 -91 64 -101 64 -155 0 -31 -7 -95 -15 -142 -9 -47 -20
-155 -25 -240 -11 -184 -32 -262 -119 -445 -215 -450 -616 -775 -893 -725
-131 24 -233 80 -352 191 -197 184 -341 428 -466 794 -81 237 -123 321 -176
358 -82 57 -191 31 -235 -56 -17 -33 -23 -69 -30 -207 -18 -359 -76 -606 -204
-877 -146 -308 -302 -463 -580 -578 -186 -77 -420 -72 -595 12 -182 87 -297
272 -359 578 -36 175 -43 281 -50 701 l-6 411 -28 37 c-55 71 -116 91 -193 61
-61 -23 -81 -56 -153 -253 -149 -400 -250 -613 -391 -825 -232 -346 -475 -608
-695 -749 -137 -89 -221 -113 -364 -106 -78 4 -110 11 -169 36 -187 79 -423
281 -531 456 -98 158 -139 294 -191 641 -38 253 -44 352 -31 590 15 291 49
524 151 1035 237 1189 394 2055 479 2655 48 332 169 1383 205 1775 29 314 108
1374 151 2039 28 424 46 627 140 1566 74 740 87 889 115 1305 11 168 27 409
35 535 45 673 116 1290 250 2180 42 275 103 687 136 915 75 519 107 713 283
1710 180 1018 464 2312 800 3645 180 716 227 871 443 1475 228 637 302 810
533 1251 68 129 175 333 238 454 279 533 496 887 966 1570 369 536 762 1012
1175 1426 204 203 348 328 614 532 515 396 882 633 1322 857 390 198 492 238
1605 628 368 129 570 194 699 227 142 36 364 72 491 79 127 8 432 -7 590 -29
344 -48 513 -96 722 -202 173 -87 414 -250 453 -305 34 -47 84 -80 162 -105
83 -26 116 -11 242 111 140 134 233 207 427 336 304 201 496 280 789 323 145
22 212 28 480 42 361 19 499 17 860 -10z m-3796 -7597 c10 -24 33 -74 51 -113
18 -38 52 -114 76 -168 256 -569 583 -1052 956 -1412 221 -215 491 -416 1298
-967 360 -246 475 -319 755 -481 110 -63 299 -174 420 -247 121 -73 335 -196
475 -273 724 -397 1446 -891 1750 -1196 147 -148 391 -444 377 -457 -3 -3 -18
1 -34 9 -34 18 -447 184 -560 226 -109 40 -358 113 -513 150 -233 56 -897 161
-1240 195 -570 58 -1674 94 -2017 67 -367 -30 -772 -105 -892 -165 -56 -29
-104 -80 -120 -128 -10 -32 -30 -158 -52 -323 -16 -122 9 -353 46 -425 32 -62
117 -102 178 -83 34 10 493 3 992 -16 149 -6 398 -13 555 -16 157 -3 363 -8
458 -11 l174 -6 -59 -26 c-32 -14 -84 -43 -117 -64 -32 -21 -63 -38 -70 -38
-35 0 -236 -130 -383 -249 -118 -95 -333 -313 -426 -434 -214 -275 -380 -588
-492 -927 -27 -80 -49 -146 -50 -148 -1 -1 -15 2 -31 9 -55 21 -450 110 -594
134 -355 58 -1162 85 -1510 51 -132 -13 -307 -38 -351 -49 -4 -1 -8 0 -10 3
-5 10 14 196 56 555 24 204 49 453 55 555 6 102 14 214 19 250 11 89 5 122
-36 169 -61 72 -154 77 -224 14 -56 -51 -67 -93 -79 -308 -12 -207 -22 -308
-74 -755 -19 -162 -40 -355 -47 -428 -8 -82 -17 -136 -25 -143 -10 -8 -15 -4
-20 18 -113 496 -286 863 -563 1194 -631 756 -1652 1032 -2640 713 -1074 -345
-1928 -1285 -2226 -2449 -34 -131 -85 -413 -85 -465 0 -55 -2 -55 -110 -49
-55 3 -102 8 -105 11 -3 3 11 113 30 244 108 733 180 959 559 1767 64 136 116
250 116 252 0 5 142 326 188 425 17 36 60 130 97 210 82 179 221 449 397 768
l133 242 170 7 c198 8 232 7 500 -6 370 -19 597 -72 1081 -254 338 -127 870
-403 1194 -620 167 -112 407 -287 435 -317 17 -18 57 -50 89 -71 49 -33 68
-39 111 -39 111 0 218 63 381 225 98 98 140 148 223 274 139 210 155 275 96
376 -31 54 -331 326 -525 476 -234 182 -746 498 -1025 634 -387 188 -1022 410
-1286 449 -154 23 -399 30 -603 17 -99 -6 -180 -10 -182 -8 -5 5 337 609 426
752 159 256 436 637 619 853 106 124 367 389 486 492 233 202 506 366 865 520
80 34 336 127 570 205 234 78 533 182 665 230 151 55 324 109 465 145 261 67
283 75 392 132 93 48 233 174 320 289 29 38 54 69 56 69 1 0 11 -19 21 -42z
m-4244 -3968 c89 -9 90 -10 128 -52 107 -123 304 -486 361 -665 6 -20 -7 -17
-171 40 l-179 61 -44 91 c-48 97 -227 371 -309 473 l-51 62 88 0 c48 0 128 -5
177 -10z m-344 -68 c91 -97 339 -462 339 -499 0 -8 -16 -7 -52 2 -71 19 -284
55 -320 55 -22 0 -33 7 -46 31 -39 70 -155 243 -231 344 -44 60 -79 110 -77
112 6 7 159 20 242 22 l82 1 63 -68z m-403 -119 c103 -139 202 -284 202 -297
0 -8 -165 -6 -216 2 -36 6 -48 15 -87 67 -25 33 -68 82 -95 109 l-50 48 50 87
c64 109 78 131 82 131 2 0 53 -66 114 -147z m1202 82 l168 -56 51 -65 c58 -76
146 -245 254 -489 76 -173 107 -245 107 -251 0 -1 -48 20 -107 48 -60 27 -146
66 -193 85 -47 19 -90 40 -97 46 -6 7 -41 86 -77 176 -37 90 -87 203 -113 250
-57 107 -139 247 -165 284 -11 16 -15 27 -8 27 7 0 87 -25 180 -55z m507 -181
c76 -31 155 -63 175 -72 45 -18 54 -35 138 -262 81 -220 129 -387 137 -478 l6
-75 -124 66 -124 66 -31 93 c-17 51 -54 143 -81 203 -28 61 -65 144 -83 185
-18 41 -60 129 -94 195 -71 139 -69 135 -63 135 3 0 68 -25 144 -56z m-1953
-124 c25 -27 46 -53 46 -58 0 -8 -160 -24 -168 -17 -5 4 62 125 69 125 4 0 27
-22 53 -50z m2394 -77 c37 -20 130 -74 208 -120 l140 -83 33 -172 c60 -313 96
-578 78 -578 -3 0 -46 26 -96 58 -49 31 -124 78 -165 104 l-76 47 0 59 c0 125
-59 348 -168 640 -18 45 -29 82 -26 82 3 0 36 -16 72 -37z m682 -419 c180
-124 180 -124 180 -183 0 -111 -53 -493 -77 -558 -8 -20 -14 -17 -113 53
l-105 75 -7 152 c-5 132 -51 441 -85 575 l-6 26 39 -23 c21 -13 100 -65 174
-117z m4436 -127 c-186 -118 -388 -273 -522 -399 l-71 -68 -99 1 c-55 1 -151
5 -214 8 l-115 7 110 109 c125 124 245 211 411 297 l114 58 202 -1 c161 0 199
-3 184 -12z m509 4 l110 -6 -60 -34 c-283 -161 -459 -278 -565 -378 l-79 -74
-182 8 -182 8 89 76 c184 156 354 274 519 359 106 56 102 55 350 41z m-1246
-62 c-129 -83 -347 -287 -396 -370 -15 -25 -23 -29 -53 -27 l-35 3 -3 64 c-4
78 9 100 135 231 l88 91 110 19 c230 39 232 39 154 -11z m1821 31 c85 -5 190
-12 233 -16 l78 -7 -149 -57 c-275 -106 -482 -221 -614 -339 l-56 -51 -209 1
c-114 0 -228 4 -253 7 l-44 7 64 51 c126 99 321 219 545 335 170 89 146 85
405 69z m-5078 -199 l127 -112 -57 -91 c-62 -97 -201 -254 -258 -289 -32 -19
-37 -20 -51 -6 -14 13 -14 21 1 78 36 144 76 415 76 511 0 48 1 50 18 36 9 -8
74 -65 144 -127z m5861 124 c168 -25 167 -22 22 -70 -275 -90 -471 -183 -617
-293 l-76 -57 -233 9 -233 9 34 29 c130 110 489 274 774 353 137 38 184 41
329 20z m607 -100 c80 -14 148 -25 153 -25 4 0 7 -4 7 -8 0 -4 -27 -14 -61
-21 -171 -35 -495 -159 -657 -251 l-73 -41 -172 11 c-95 6 -201 12 -237 13
l-65 2 72 44 c151 90 436 201 688 266 72 19 146 34 165 34 19 1 100 -10 180
-24z m618 -157 l157 -52 -75 -13 c-248 -43 -459 -103 -604 -171 l-78 -37 -212
29 c-116 15 -219 31 -230 35 -14 5 10 19 95 56 217 92 411 151 624 189 129 23
152 20 323 -36z m477 -182 c141 -56 175 -73 175 -90 0 -16 -50 -26 -130 -26
-87 -1 -254 -27 -379 -61 -64 -17 -128 -34 -143 -36 -23 -4 -109 14 -370 79
-21 5 -38 11 -38 13 0 8 220 74 330 99 114 25 336 59 418 65 13 0 75 -19 137
-43z m601 -177 c112 -171 224 -366 290 -505 197 -416 317 -976 364 -1699 5
-88 13 -184 16 -212 l5 -53 -113 0 -113 0 -39 138 c-133 468 -354 901 -652
1277 -116 146 -381 408 -524 519 -98 76 -110 88 -80 81 75 -16 399 -126 468
-160 82 -39 152 -46 201 -21 38 20 129 133 141 176 13 46 13 144 -1 211 -49
252 -67 379 -54 379 2 0 43 -59 91 -131z m-401 -83 c4 -25 5 -50 3 -56 -2 -7
-37 -23 -77 -35 l-73 -24 -162 46 c-88 25 -163 47 -165 49 -9 8 6 13 86 29
107 22 199 32 300 34 l82 1 6 -44z m-1605 -1296 c125 -16 222 -45 346 -105
182 -88 343 -223 475 -397 60 -80 129 -192 129 -209 0 -5 -10 -7 -22 -4 -21 4
-140 16 -638 62 -140 13 -290 17 -615 18 -412 0 -546 -6 -803 -37 -51 -6 -95
-8 -99 -5 -12 13 118 178 227 287 210 211 451 343 690 379 155 23 197 24 310
11z m-8135 -33 c173 -39 321 -102 465 -200 110 -76 257 -226 329 -337 34 -52
61 -97 61 -100 0 -4 -51 2 -113 11 -249 38 -451 51 -832 56 -649 9 -984 -21
-1319 -118 -55 -16 -102 -27 -104 -24 -7 6 79 122 151 204 257 291 606 478
977 525 70 9 317 -2 385 -17z m-935 -983 c-24 -67 -82 -328 -106 -469 -36
-208 -19 -531 36 -706 11 -35 20 -70 20 -76 0 -10 -44 -13 -185 -13 -208 0
-333 11 -485 44 -91 19 -107 25 -117 46 -44 93 -66 462 -39 665 13 100 65 328
78 340 15 14 249 101 358 133 155 46 352 87 427 91 l32 1 -19 -56z m8290 42
c0 -2 -11 -29 -25 -61 -101 -226 -167 -674 -135 -907 18 -137 100 -418 131
-453 23 -24 4 -28 -118 -22 -147 7 -309 27 -472 59 -132 26 -122 14 -148 180
-21 138 -24 479 -5 613 24 167 99 465 130 512 14 21 642 99 642 79z m-3480
-996 c464 -18 637 -35 1015 -100 99 -17 194 -28 210 -25 l30 5 23 -139 c86
-530 319 -1095 625 -1520 500 -695 1186 -1131 1954 -1242 198 -29 540 -24 733
11 784 139 1453 649 1852 1410 102 195 170 369 262 674 12 37 15 40 67 51 30
7 81 20 114 29 32 9 82 16 110 16 48 0 51 -2 73 -41 26 -45 85 -79 137 -79 75
0 115 34 249 213 134 178 230 255 491 393 134 71 202 88 330 81 141 -7 185
-25 271 -111 80 -81 122 -152 187 -316 152 -381 238 -918 224 -1385 -9 -278
-34 -429 -142 -865 -117 -470 -238 -882 -325 -1110 -64 -168 -127 -304 -281
-611 -225 -451 -302 -564 -568 -830 -230 -229 -329 -299 -496 -347 -112 -32
-171 -42 -258 -42 -70 0 -87 4 -114 23 -44 31 -292 264 -366 344 -34 36 -76
72 -94 80 -42 17 -107 17 -142 -2 -36 -18 -81 -71 -81 -95 0 -10 -18 -39 -39
-64 -71 -81 -121 -330 -121 -601 0 -339 -47 -568 -216 -1075 -269 -800 -348
-994 -806 -1970 -22 -47 -80 -173 -128 -280 -304 -677 -591 -1234 -826 -1606
-214 -341 -633 -920 -888 -1229 -125 -152 -396 -423 -546 -547 -345 -285 -619
-484 -845 -614 -165 -94 -374 -198 -470 -233 -117 -42 -497 -135 -683 -167
-196 -33 -514 -47 -902 -41 -364 6 -434 15 -760 98 -313 79 -330 85 -665 206
-312 113 -488 192 -716 323 -440 252 -724 475 -1049 825 -229 247 -319 362
-557 710 -82 121 -251 369 -375 550 -302 442 -420 622 -520 795 -167 285 -358
664 -570 1125 -61 132 -167 355 -235 495 -316 646 -489 1075 -923 2290 -91
256 -188 549 -224 681 -20 72 -71 147 -116 171 -45 24 -111 23 -159 -2 -37
-18 -45 -30 -87 -126 -16 -36 -228 -231 -285 -260 -51 -27 -61 -29 -174 -29
-85 1 -137 6 -180 19 -126 37 -317 150 -424 250 -212 199 -597 919 -754 1411
-84 261 -172 706 -223 1125 -32 263 -29 974 7 1450 40 527 167 903 388 1143
150 163 285 258 442 313 67 23 84 25 184 20 170 -8 244 -37 342 -138 117 -120
198 -241 306 -456 104 -210 131 -247 222 -303 41 -26 120 -25 163 1 52 32 72
74 72 154 l0 68 113 -7 c124 -8 150 -16 234 -73 32 -21 72 -47 90 -56 25 -12
44 -39 82 -114 311 -605 867 -1051 1516 -1217 235 -61 320 -70 620 -70 232 1
288 4 396 23 802 139 1509 587 2034 1287 199 266 365 572 491 905 35 93 43
108 44 80 0 -19 -11 -207 -25 -417 -24 -370 -33 -603 -55 -1378 -6 -203 -15
-480 -20 -615 -17 -444 -24 -1802 -11 -2065 45 -908 153 -1290 474 -1684 271
-331 497 -389 694 -178 63 67 139 186 189 294 72 157 89 196 126 296 41 112
102 309 133 434 11 40 20 71 23 69 2 -2 10 -75 18 -163 53 -587 126 -958 225
-1144 117 -219 332 -304 527 -209 78 38 233 186 296 283 115 177 211 457 241
707 11 96 13 98 52 31 90 -151 257 -340 378 -426 206 -148 460 -176 638 -72
72 43 168 153 215 248 78 159 111 333 119 639 6 219 -4 378 -38 614 -33 229
-107 623 -139 741 -37 134 -135 341 -180 378 -64 54 -143 55 -205 4 -92 -76
-98 -209 -12 -283 50 -44 88 -178 156 -559 79 -435 86 -502 86 -815 -1 -220
-4 -294 -18 -368 -30 -160 -75 -257 -142 -308 -33 -25 -41 -26 -105 -22 -93 7
-160 41 -255 130 -148 138 -263 319 -329 519 -35 107 -133 524 -161 684 -10
61 -16 185 -20 390 -2 165 -4 308 -5 317 0 10 -16 36 -36 58 -80 89 -207 71
-271 -38 l-27 -46 4 -285 c9 -528 4 -1151 -9 -1296 -33 -365 -104 -609 -225
-780 -50 -69 -140 -155 -163 -155 -111 0 -194 333 -269 1075 -20 188 -23 618
-14 1585 6 585 8 562 -62 612 -50 35 -142 33 -190 -4 -77 -58 -125 -273 -248
-1088 -102 -678 -171 -997 -287 -1320 -54 -151 -177 -407 -227 -473 -36 -46
-38 -47 -64 -33 -65 34 -242 247 -318 382 -142 255 -211 594 -244 1214 -20
369 -9 1708 20 2425 5 138 14 441 20 675 6 234 15 506 20 605 17 307 60 957
68 1015 l7 55 80 12 c44 7 125 17 180 22 143 12 704 13 1015 1z m-3200 -617
c-66 -89 -265 -281 -363 -350 -163 -115 -372 -208 -558 -249 -100 -22 -354
-30 -459 -15 -268 40 -528 175 -720 377 -72 76 -163 194 -177 230 -5 14 -2 16
18 11 91 -23 294 -27 964 -17 725 10 811 14 1141 53 104 13 191 22 193 20 2
-1 -15 -28 -39 -60z m6247 -133 c87 -11 247 -25 358 -30 267 -13 671 -38 825
-51 69 -5 302 -13 518 -16 215 -3 392 -8 392 -10 0 -3 -27 -44 -60 -91 -399
-580 -1027 -787 -1565 -514 -76 38 -184 110 -250 167 l-30 26 30 -11 c48 -18
200 -48 335 -66 161 -21 643 -30 847 -16 117 9 161 16 191 31 107 54 111 199
9 275 -28 20 -38 21 -475 21 -415 0 -457 2 -589 23 -78 12 -172 32 -209 43
-107 33 -169 16 -221 -61 -16 -22 -23 -48 -23 -79 l-1 -46 -35 40 c-53 59
-135 188 -188 292 -51 103 -53 108 -31 99 9 -3 86 -15 172 -26z m5073 -4785
c-18 -161 -30 -372 -56 -940 -29 -658 -29 -1122 0 -1335 63 -448 107 -655 326
-1525 104 -412 216 -858 249 -990 170 -678 243 -1125 258 -1570 12 -370 -46
-604 -189 -761 -87 -95 -184 -134 -383 -154 -281 -29 -502 23 -865 204 -146
73 -211 113 -340 211 -288 219 -422 375 -655 764 -160 268 -234 337 -341 316
-51 -9 -108 -67 -124 -125 -9 -35 -8 -70 6 -184 13 -105 18 -213 18 -426 0
-327 -11 -423 -70 -600 -69 -209 -161 -323 -324 -402 -151 -74 -225 -93 -360
-93 -139 0 -219 23 -419 120 -154 75 -250 139 -349 230 -167 155 -235 301
-298 640 -29 155 -37 226 -43 386 -7 169 -11 202 -28 238 l-21 42 88 137 c262
409 601 1064 889 1719 22 50 118 259 214 465 305 653 451 1001 582 1388 35
102 97 284 139 404 97 279 137 414 175 601 40 200 50 283 56 498 6 196 22 373
35 396 6 11 38 -15 132 -105 193 -185 271 -223 456 -224 254 0 522 90 733 247
77 57 361 334 450 438 34 41 64 73 65 72 1 -1 -2 -38 -6 -82z"/>
<path d="M20495 30753 c-22 -3 -45 -9 -52 -15 -17 -13 -17 -63 0 -76 6 -5 86
-12 177 -15 256 -8 574 -71 875 -171 168 -57 210 -75 268 -120 67 -51 117 -46
117 12 0 33 -57 85 -139 126 -206 104 -711 230 -1026 256 -121 10 -146 10
-220 3z"/>
<path d="M19156 30451 c-23 -25 -15 -66 16 -82 12 -7 98 -16 191 -20 206 -11
402 -38 606 -85 173 -40 201 -38 201 15 0 16 -6 34 -14 40 -19 16 -222 65
-371 90 -130 22 -264 37 -420 46 -55 3 -120 8 -145 11 -37 4 -49 2 -64 -15z"/>
<path d="M18691 30138 c-43 -16 -29 -81 21 -96 19 -6 178 -12 379 -14 287 -2
349 -1 363 11 25 21 17 63 -15 78 -28 14 -716 33 -748 21z"/>
<path d="M24946 27224 c-27 -27 -18 -54 40 -117 77 -85 146 -210 265 -481 134
-304 147 -326 200 -326 23 0 32 6 39 26 9 22 6 34 -14 68 -13 23 -70 145 -126
271 -146 330 -218 455 -309 538 -44 40 -71 46 -95 21z"/>
<path d="M14025 26648 c-150 -123 -596 -522 -672 -602 -95 -100 -111 -134 -81
-164 29 -29 59 -13 151 85 79 83 548 502 675 603 30 24 42 41 42 60 0 58 -55
67 -115 18z"/>
<path d="M20756 26544 c-9 -8 -16 -28 -16 -43 0 -23 35 -63 193 -222 187 -189
346 -364 457 -501 42 -53 59 -68 80 -68 33 0 50 17 50 50 0 19 -27 59 -91 136
-124 149 -350 394 -473 511 -55 53 -109 109 -118 125 -20 32 -57 37 -82 12z"/>
<path d="M24975 26416 c-40 -29 -25 -76 110 -341 70 -137 137 -260 148 -272
29 -32 75 -31 87 2 8 22 -9 62 -125 291 -74 146 -135 272 -135 280 0 18 -36
54 -53 54 -7 0 -22 -6 -32 -14z"/>
<path d="M21727 26242 c-22 -24 -21 -57 2 -109 21 -45 51 -67 79 -58 14 4 33
-18 89 -102 131 -201 179 -304 219 -473 26 -110 43 -140 79 -140 48 0 55 35
30 147 -40 174 -114 336 -244 530 -104 155 -167 223 -207 223 -17 0 -38 -8
-47 -18z"/>
<path d="M14677 26125 c-87 -30 -291 -169 -712 -485 -207 -155 -359 -280 -378
-311 -14 -23 -1 -67 23 -74 26 -8 47 4 159 98 101 85 371 288 632 475 170 122
302 202 334 202 32 0 65 28 65 55 0 27 -34 55 -65 55 -11 -1 -37 -7 -58 -15z"/>
<path d="M25569 25889 c-19 -19 -21 -28 -15 -80 3 -33 22 -132 41 -221 20 -90
47 -226 60 -302 27 -151 42 -186 80 -186 28 0 61 41 51 65 -3 9 -15 71 -26
138 -12 67 -39 204 -61 304 -21 101 -39 196 -39 212 0 32 -19 81 -31 81 -4 0
-14 3 -22 6 -9 3 -25 -4 -38 -17z"/>
<path d="M13425 25701 c-22 -11 -130 -97 -240 -192 -110 -94 -256 -217 -325
-272 -230 -184 -272 -236 -216 -272 29 -19 60 -9 96 30 14 15 93 82 175 149
83 66 236 194 340 284 105 91 201 169 215 175 40 17 60 38 60 62 0 45 -49 62
-105 36z"/>
<path d="M11435 25419 c-53 -49 -133 -165 -332 -484 -83 -132 -187 -298 -233
-370 -116 -181 -260 -434 -260 -456 0 -23 26 -49 51 -49 27 0 51 27 94 106 54
99 172 291 420 684 241 383 284 447 344 505 58 55 53 105 -11 105 -19 0 -43
-13 -73 -41z"/>
<path d="M11201 24342 c-106 -112 -491 -722 -491 -778 0 -28 19 -44 52 -44 31
0 30 -2 157 213 101 171 233 373 317 484 73 96 83 136 38 153 -35 14 -33 14
-73 -28z"/>
<path d="M23836 23844 c-31 -31 -21 -70 72 -271 104 -225 146 -363 202 -666
39 -213 50 -236 110 -227 38 5 38 21 -14 290 -57 298 -96 421 -215 680 -32 69
-61 138 -65 155 -4 16 -12 36 -18 42 -14 18 -53 16 -72 -3z"/>
<path d="M15723 23760 c-252 -123 -562 -232 -1068 -376 -355 -102 -377 -111
-359 -161 9 -25 14 -28 54 -27 53 1 625 165 885 254 289 99 593 229 648 278
20 18 23 55 5 69 -31 23 -51 19 -165 -37z"/>
<path d="M17649 23374 c-30 -36 -16 -87 68 -255 167 -334 395 -631 661 -860
245 -210 456 -329 587 -329 46 0 65 13 65 46 0 34 -23 51 -89 62 -246 44 -706
444 -965 842 -128 195 -228 392 -228 444 1 47 -14 66 -52 66 -19 0 -40 -7 -47
-16z"/>
<path d="M18532 22808 c-16 -16 -15 -63 2 -96 38 -73 265 -256 471 -379 203
-122 477 -240 537 -231 31 4 44 31 32 65 -8 25 -24 33 -124 68 -315 111 -721
380 -843 559 -19 28 -55 34 -75 14z"/>
<path d="M24382 22808 c-19 -19 -14 -54 18 -123 42 -90 75 -212 100 -366 42
-269 49 -289 95 -289 29 0 60 41 51 67 -4 9 -18 89 -32 178 -13 88 -33 198
-44 244 -19 80 -90 261 -112 289 -13 15 -60 16 -76 0z"/>
<path d="M24020 22061 c-28 -53 -2 -220 65 -430 48 -149 78 -204 113 -209 56
-8 65 36 27 131 -52 125 -97 299 -102 392 -3 52 -11 100 -19 113 -19 28 -69
30 -84 3z"/>
<path d="M8978 21766 c-44 -46 -127 -191 -268 -471 -126 -249 -159 -334 -167
-436 -6 -69 8 -99 46 -99 33 0 48 25 60 98 15 96 54 195 151 386 127 249 219
408 261 451 43 45 48 64 21 88 -30 27 -67 21 -104 -17z"/>
<path d="M9496 21386 c-86 -95 -425 -695 -491 -869 -38 -103 -32 -157 20 -157
30 0 49 25 70 90 44 137 348 690 466 847 40 53 49 89 27 111 -22 22 -59 13
-92 -22z"/>
<path d="M20213 21120 c-56 -23 -31 -100 32 -100 166 0 676 -304 1021 -608
187 -164 209 -182 235 -182 32 0 49 17 49 51 0 20 -12 37 -47 65 -27 21 -77
66 -113 99 -75 70 -270 227 -380 305 -338 242 -702 410 -797 370z"/>
<path d="M26077 21012 c-22 -24 -22 -130 -2 -387 9 -111 15 -286 14 -421 -1
-127 1 -236 5 -242 12 -20 74 -15 85 7 17 31 24 305 12 486 -6 94 -16 256 -22
360 -9 151 -14 193 -27 203 -22 17 -46 15 -65 -6z"/>
<path d="M11553 20878 c-12 -13 -51 -83 -88 -157 -36 -73 -148 -280 -247 -460
-256 -461 -318 -597 -318 -699 0 -55 12 -72 52 -72 32 0 36 8 62 115 21 88 98
247 258 535 192 346 240 434 313 578 64 128 66 134 51 157 -21 31 -56 32 -83
3z"/>
<path d="M9362 20222 c-7 -5 -46 -87 -86 -183 -80 -191 -154 -356 -301 -674
-130 -282 -225 -511 -225 -544 0 -33 16 -51 45 -51 34 0 49 24 114 183 34 81
114 263 180 405 223 484 351 783 351 821 0 38 -46 63 -78 43z"/>
<path d="M25820 19885 c-10 -12 -10 -55 -1 -202 14 -240 14 -442 0 -518 -25
-131 -12 -171 48 -149 24 8 30 19 45 74 30 115 21 729 -12 790 -13 24 -61 27
-80 5z"/>
<path d="M9382 19208 c-27 -30 -246 -451 -262 -503 -15 -51 -10 -105 11 -118
9 -5 28 -7 42 -3 21 5 29 16 42 64 14 46 139 298 247 495 19 35 19 39 4 62
-21 31 -56 32 -84 3z"/>
<path d="M26160 18900 c-19 -19 -20 -33 -20 -247 0 -369 -22 -578 -77 -746
-31 -93 -24 -127 26 -127 35 0 43 10 70 77 57 144 80 353 82 742 1 273 0 296
-17 308 -25 18 -41 16 -64 -7z"/>
<path d="M9884 17456 c-23 -17 -29 -29 -119 -261 -100 -256 -359 -767 -536
-1058 -37 -60 -38 -103 -4 -119 19 -8 29 -8 47 4 23 15 160 250 314 538 107
199 219 443 294 640 35 91 67 169 72 175 16 18 9 74 -11 85 -26 13 -33 13 -57
-4z"/>
<path d="M9053 16719 c-30 -11 -53 -50 -107 -179 -25 -58 -80 -181 -124 -275
-109 -234 -118 -260 -103 -291 9 -21 17 -25 44 -22 27 2 36 10 54 48 39 77
203 439 240 528 19 47 42 96 50 108 30 46 -7 102 -54 83z"/>
<path d="M8943 15505 c-24 -17 -389 -621 -422 -698 -27 -63 -26 -83 4 -103 23
-15 27 -15 49 -1 13 9 35 40 49 70 34 74 361 618 392 651 30 32 32 57 7 79
-23 21 -51 22 -79 2z"/>
<path d="M6394 7886 c-20 -14 -21 -28 -27 -228 -4 -117 -16 -298 -27 -403 -11
-104 -20 -229 -20 -277 0 -82 1 -88 25 -104 23 -15 27 -15 50 0 22 14 25 24
25 74 0 31 10 145 21 252 11 107 24 301 28 430 7 203 6 237 -7 253 -18 21 -41
22 -68 3z"/>
<path d="M7950 7371 c-13 -25 -13 -105 0 -246 5 -60 17 -245 25 -410 8 -165
19 -317 25 -338 14 -47 50 -73 79 -57 28 14 34 46 21 103 -5 26 -15 150 -20
275 -14 317 -41 665 -52 680 -16 19 -66 15 -78 -7z"/>
<path d="M9386 7264 c-22 -21 -20 -50 5 -75 38 -38 49 -68 242 -664 79 -245
116 -331 151 -346 22 -10 29 -9 47 7 26 24 22 52 -24 164 -19 47 -79 222 -132
390 -144 454 -183 540 -245 540 -16 0 -36 -7 -44 -16z"/>
<path d="M8873 7218 c-23 -30 -20 -57 21 -221 24 -94 72 -309 106 -477 34
-168 68 -315 76 -328 20 -31 64 -27 81 8 10 21 2 71 -47 310 -66 321 -91 437
-126 562 -13 48 -24 98 -24 110 0 13 -5 29 -12 36 -16 16 -63 15 -75 0z"/>
<path d="M10019 5770 c-32 -18 -31 -57 2 -138 63 -157 178 -472 228 -627 61
-191 79 -225 120 -225 36 0 55 22 48 57 -8 42 -186 549 -247 703 -29 74 -59
153 -67 175 -20 58 -48 76 -84 55z"/>
<path d="M8133 5238 c-21 -27 -22 -54 -8 -186 8 -75 26 -270 40 -432 47 -555
65 -640 130 -640 13 0 28 7 35 15 13 16 12 36 -14 190 -9 50 -29 243 -45 430
-61 689 -52 635 -100 635 -16 0 -33 -6 -38 -12z"/>
<path d="M5509 3444 l-24 -26 1 -371 c1 -518 29 -735 121 -930 56 -119 147
-189 191 -145 23 23 12 57 -33 101 -49 49 -74 100 -110 224 -50 172 -59 275
-61 731 -2 232 -6 427 -9 432 -11 19 -51 10 -76 -16z"/>
<path d="M15832 18598 c-18 -18 -14 -45 13 -86 52 -79 70 -272 39 -432 -19
-104 -63 -228 -125 -356 -27 -55 -49 -105 -49 -111 0 -5 9 -18 20 -28 28 -25
65 -12 93 33 39 61 125 272 147 358 60 233 41 497 -43 599 -30 37 -71 47 -95
23z"/>
<path d="M24895 13428 c-27 -5 -88 -27 -135 -50 -199 -95 -421 -392 -646 -865
-119 -249 -148 -378 -104 -462 59 -116 170 -133 316 -49 160 92 297 110 419
54 138 -63 255 -241 272 -413 15 -158 -65 -506 -177 -765 -96 -224 -295 -442
-522 -572 l-46 -27 -12 38 c-20 62 -50 102 -91 123 -49 26 -92 25 -145 -1 -89
-43 -108 -131 -60 -282 40 -130 96 -188 204 -217 158 -41 516 168 733 428 150
180 234 335 317 587 112 337 150 588 118 773 -33 190 -111 339 -250 477 -101
101 -199 160 -316 190 -70 19 -227 25 -298 12 -54 -9 -56 -17 43 171 126 241
277 443 371 498 63 37 154 44 217 16 40 -18 47 -26 58 -64 7 -28 9 -82 6 -154
-7 -134 2 -176 52 -225 61 -61 151 -65 216 -8 51 45 59 82 59 269 0 178 -13
241 -68 329 -94 148 -321 229 -531 189z"/>
<path d="M8650 13325 c-89 -24 -209 -89 -297 -160 -162 -130 -263 -281 -314
-470 -31 -111 -34 -382 -6 -462 24 -69 80 -118 153 -134 48 -11 56 -10 100 12
61 31 86 65 92 128 3 38 0 60 -17 91 -42 82 -18 300 46 409 77 133 283 286
358 267 46 -12 103 -163 150 -396 26 -129 83 -453 81 -457 -1 -1 -22 3 -46 8
-92 21 -256 -17 -412 -98 -190 -98 -301 -279 -388 -635 -53 -217 -61 -425 -24
-638 57 -330 226 -781 380 -1017 109 -169 245 -270 395 -295 153 -25 356 64
527 230 83 81 103 157 61 232 -40 70 -139 101 -210 64 -17 -8 -61 -43 -98 -77
-77 -70 -149 -113 -207 -122 -33 -6 -46 -2 -86 25 -126 84 -299 452 -404 858
-80 313 -68 550 46 863 60 165 109 215 267 266 73 24 85 25 107 13 34 -18 90
-101 117 -174 51 -139 180 -197 279 -126 57 41 65 69 64 230 -2 194 -52 552
-130 930 -55 265 -120 430 -208 527 -92 102 -241 145 -376 108z"/>
<path d="M19590 5899 c-52 -11 -174 -37 -270 -58 -412 -91 -660 -119 -1305
-146 -198 -9 -443 -20 -545 -25 -102 -5 -340 -14 -530 -20 -190 -6 -520 -19
-735 -30 -756 -38 -1526 -50 -1955 -30 -245 11 -544 36 -621 50 -73 14 -139
12 -172 -5 -42 -22 -147 -116 -163 -147 -21 -41 -17 -125 10 -190 13 -31 68
-139 123 -240 55 -101 153 -284 218 -408 205 -393 399 -690 640 -980 115 -138
433 -454 555 -551 400 -316 811 -496 1225 -538 166 -17 720 -34 880 -27 268
11 544 61 725 131 157 60 402 193 575 313 180 124 418 335 571 503 260 287
547 737 741 1162 36 78 76 167 90 197 14 30 54 118 88 195 35 77 90 194 123
260 91 182 116 269 117 390 0 90 -2 103 -24 134 -52 72 -192 96 -361 60z
m-1116 -532 c3 -12 12 -81 21 -152 9 -72 23 -174 30 -227 8 -54 15 -105 15
-113 0 -12 -57 -34 -191 -71 -12 -3 -17 16 -28 113 -7 65 -24 187 -37 272 -13
85 -24 163 -24 172 0 16 11 19 83 22 45 1 92 4 103 5 15 1 24 -5 28 -21z
m-521 -179 c27 -169 57 -412 57 -455 0 -19 -11 -24 -87 -42 -114 -27 -293 -55
-300 -47 -8 8 -143 689 -138 695 5 5 231 17 356 19 l85 2 27 -172z m-795 107
c3 -31 105 -558 123 -634 5 -24 7 -46 4 -49 -3 -4 -176 -8 -384 -10 l-379 -4
-5 38 c-2 22 -14 100 -26 174 -22 144 -51 400 -51 456 0 43 -7 42 355 53 384
11 359 13 363 -24z m-1022 -300 c9 -82 25 -204 35 -269 11 -65 18 -120 16
-122 -9 -10 -580 56 -592 68 -3 2 -9 110 -15 239 -5 129 -11 261 -12 294 l-3
60 230 7 c127 4 248 9 270 10 l40 3 7 -70 c5 -38 15 -137 24 -220z m-901 253
c5 -19 25 -511 21 -516 -3 -2 -89 10 -193 28 -217 36 -219 37 -254 148 -15 49
-22 104 -26 204 l-6 138 174 3 c96 1 198 4 227 5 35 1 54 -2 57 -10z m2578
-2030 c8 -35 16 -70 18 -78 3 -10 -37 -35 -131 -82 -74 -38 -146 -69 -159 -71
-24 -2 -26 3 -47 108 -13 61 -21 116 -19 123 2 6 19 12 37 13 18 0 80 11 138
23 156 34 145 36 163 -36z m-2051 -57 c9 -8 32 -181 24 -188 -6 -6 -90 22
-204 70 l-72 30 6 36 c13 77 3 72 127 65 62 -4 115 -9 119 -13z m1409 -119
c18 -93 23 -135 15 -138 -18 -6 -215 -24 -266 -24 -27 0 -51 3 -54 8 -9 15
-48 253 -42 259 3 4 56 10 118 15 62 4 120 10 128 12 8 2 28 3 45 3 l29 -2 27
-133z m-687 91 c3 -10 12 -58 21 -108 9 -49 19 -101 22 -114 l6 -24 -198 7
c-110 3 -201 8 -203 10 -3 3 -28 193 -32 244 0 1 85 2 189 2 172 0 190 -2 195
-17z"/>
<path d="M16760 2010 c-400 -38 -653 -107 -757 -206 -72 -69 -81 -161 -23
-228 61 -70 146 -74 246 -13 86 52 221 82 506 112 169 17 481 20 613 5 97 -12
244 -57 315 -97 25 -14 66 -46 91 -70 52 -50 99 -66 156 -53 111 25 156 142
96 252 -63 115 -316 244 -566 289 -81 14 -554 20 -677 9z"/>
<path d="M11945 13686 c-94 -41 -124 -168 -58 -246 32 -38 79 -62 163 -83 140
-34 236 -40 545 -33 306 6 393 13 524 42 63 14 80 22 116 58 69 70 69 152 0
221 -52 52 -89 60 -184 40 -106 -22 -309 -35 -554 -35 -217 0 -318 9 -411 36
-61 17 -102 17 -141 0z"/>
<path d="M23427 7518 c-8 -13 -24 -101 -37 -198 -12 -96 -44 -301 -71 -455
-103 -586 -119 -690 -125 -788 -6 -113 5 -150 45 -155 45 -7 61 23 61 115 0
98 13 192 80 563 109 604 145 868 126 910 -16 35 -60 39 -79 8z"/>
<path d="M24369 5864 c-11 -13 -13 -61 -11 -223 4 -294 20 -735 32 -849 17
-166 46 -269 83 -300 23 -19 60 -11 73 17 10 20 9 33 -7 74 -43 109 -63 373
-74 961 -4 200 -10 315 -17 323 -15 18 -63 16 -79 -3z"/>
<path d="M23263 5794 c-22 -34 -30 -144 -39 -544 -8 -349 -4 -385 43 -396 46
-12 58 6 55 77 -5 113 18 742 30 801 13 67 2 88 -43 88 -20 0 -34 -8 -46 -26z"/>
<path d="M24037 3062 c-23 -26 -21 -60 8 -138 73 -194 321 -527 491 -660 87
-68 110 -76 139 -44 29 32 12 61 -73 128 -114 90 -267 274 -373 449 -59 97
-99 185 -99 216 0 56 -59 87 -93 49z"/>
</g>
</svg>
